<svg width="29" height="29" viewBox="0 0 29 29" fill="none" xmlns="http://www.w3.org/2000/svg">
<path id="Vector" d="M10.3646 0L9.09664 10.1704H11.8796L15.0722 0.590836L10.3646 0ZM16.3271 0.522864L13.115 10.1704L22.8489 10.1769L25.0791 3.47051L16.3271 0.522864ZM9.03812 1.21827L4.363 1.73068L5.27982 10.1704H7.92623L9.03812 1.21827ZM1.49552 8.20962C0.747758 8.20962 0.248386 8.78477 0.112489 9.33378C0.0448654 9.60828 0.0832286 9.8305 0.159955 9.95468C0.236031 10.0723 0.341368 10.1704 0.715247 10.1704H4.10291L3.88834 8.20962H1.49552ZM24.7345 8.20962L24.0843 10.1704H27.1729C27.0038 9.84357 26.9323 9.49717 26.9778 9.15077C27.0233 8.81091 27.1534 8.50373 27.3224 8.20962H24.7345ZM0 11.3468V27.4837C0 27.817 0.181413 28.2092 0.479215 28.5098C0.777668 28.8105 1.1704 28.9935 1.49552 28.9935L26.4641 29C26.7892 29 27.1794 28.817 27.4785 28.5163C27.7776 28.2157 27.9596 27.8236 27.9596 27.4902V22.8498H22.3027C19.4417 22.8498 19.4417 17.4905 22.3027 17.4905H27.9596V11.3533L0 11.3468ZM22.3027 18.6669C21.0022 18.6669 21.0022 21.6734 22.3027 21.6734H23.7527C23.1675 21.425 22.7578 20.8433 22.7578 20.1701C22.7578 19.4969 23.1675 18.9153 23.7527 18.6669H22.3027ZM25.0141 18.6669C25.5993 18.9153 26.009 19.4969 26.009 20.1701C26.009 20.8433 25.5993 21.425 25.0141 21.6734H29V18.6669H25.0141ZM24.3834 19.7126C24.1233 19.7126 23.9283 19.9087 23.9283 20.1701C23.9283 20.4316 24.1233 20.6276 24.3834 20.6276C24.6435 20.6276 24.8386 20.4316 24.8386 20.1701C24.8386 19.9087 24.6435 19.7126 24.3834 19.7126Z" fill="#007AFF"/>
</svg>
