<svg width="65" height="65" viewBox="0 0 65 65" fill="none" xmlns="http://www.w3.org/2000/svg">
<circle cx="32.5" cy="32.5" r="32" stroke="url(#paint0_linear_235_2529)"/>
<circle cx="32.5" cy="32.5" r="27.5" fill="#D9D9D9"/>
<g clip-path="url(#clip0_235_2529)">
<path d="M30.1692 48.239L29.5575 48.0182L30.0438 46.7498L30.6555 46.9528C31.0163 47.0692 31.4904 47.2512 31.9736 47.3855L32.6801 47.6093C32.8911 47.675 33.0838 47.7287 33.255 47.7794C35.0166 47.4273 36.7874 47.0483 38.5031 46.714C35.3683 41.8795 31.0836 41.8944 23.8783 37.2568C16.6729 32.6192 35.9249 27.725 35.9249 27.725C35.9249 27.725 13.7706 25.2421 9.67855 34.8634C6.12174 43.2194 17.6944 47.9704 21.349 48.4897C24.5756 48.9463 26.3769 49.4387 30.4016 48.3226L30.1692 48.239ZM25.8203 28.9127C26.1934 28.8322 26.7011 28.7456 27.2057 28.6561C27.7103 28.5666 28.2149 28.489 28.5972 28.4353L29.2272 28.3427L29.2639 28.5576L28.6523 28.668C28.2731 28.7337 27.7745 28.8352 27.276 28.9336C26.7775 29.0321 26.2821 29.1396 25.909 29.2321L25.2973 29.3753L25.2178 29.0351L25.8203 28.9127ZM19.7832 30.6048C19.9606 30.5332 20.1655 30.4497 20.3949 30.3691L21.1136 30.1154L21.8353 29.8886C22.0647 29.811 22.2849 29.7573 22.4684 29.7036L23.0801 29.5305L23.1963 29.9304L22.5846 30.1214C22.4042 30.1781 22.1901 30.2408 21.973 30.3243L21.2726 30.569L20.5845 30.8376C20.3673 30.9212 20.1624 31.0107 19.9728 31.0883L19.3917 31.3479L19.1654 30.8466L19.7832 30.6048ZM16.7463 40.8589L16.624 40.7365C16.5506 40.6619 16.4282 40.5365 16.2967 40.3933C15.9627 40.0368 15.6561 39.6567 15.3792 39.2563C15.1011 38.8505 14.8693 38.4162 14.6881 37.9611C14.6147 37.7731 14.5627 37.612 14.529 37.4985L14.4801 37.3195L15.2875 37.1136L15.3364 37.2658C15.367 37.3613 15.4129 37.4956 15.4802 37.6537C15.6514 38.0462 15.8657 38.4195 16.1193 38.7669C16.3773 39.1227 16.6625 39.4589 16.9726 39.7726C17.1011 39.9039 17.1989 40.0024 17.2784 40.071L17.4038 40.1904L16.7463 40.8589ZM17.4681 32.47C17.3794 32.5297 17.257 32.6222 17.1133 32.7326C16.7617 32.9993 16.438 33.2992 16.1469 33.6279C15.9941 33.8004 15.855 33.9839 15.7309 34.177C15.6232 34.3426 15.5291 34.5162 15.4496 34.6963C15.4159 34.7739 15.3853 34.8455 15.3639 34.9082C15.3425 34.9708 15.3211 35.0186 15.3058 35.0753L15.2569 35.2394L14.5229 35.0186L14.5779 34.8575C14.5932 34.8067 14.6238 34.7321 14.6544 34.6515C14.685 34.571 14.7278 34.4844 14.7706 34.3919C14.8723 34.1846 14.9899 33.9851 15.1223 33.795C15.273 33.5794 15.4385 33.374 15.6178 33.1803C15.9494 32.8256 16.3162 32.5037 16.7127 32.2193C16.8717 32.103 17.0185 32.0104 17.1011 31.9478L17.254 31.8493L17.6057 32.3626L17.4681 32.47ZM21.8842 44.5146L21.3338 44.1983C21.1686 44.1028 20.9759 43.9953 20.768 43.864L20.1104 43.4641L19.4988 43.0434C19.2969 42.912 19.1134 42.7807 18.9544 42.6673L18.4192 42.2973L19.0308 41.5035L19.5447 41.8526C19.6976 41.9571 19.8749 42.0794 20.0768 42.2018L20.6885 42.5868L21.3185 42.9479C21.5142 43.0672 21.716 43.1687 21.8812 43.2612L22.4409 43.5596L21.8842 44.5146ZM27.5482 47.2184L26.9641 46.9707C26.6124 46.8244 26.1384 46.6126 25.6674 46.4037C25.1964 46.1948 24.7499 45.9769 24.389 45.8068L23.811 45.5293L24.3401 44.4758L24.912 44.7325C25.2545 44.8906 25.7194 45.0846 26.1812 45.2816C26.643 45.4785 27.0987 45.6606 27.4626 45.7979L28.0559 46.0276L27.5482 47.2184Z" fill="url(#paint1_linear_235_2529)"/>
<path d="M33.8308 15.764L34.4425 15.9848L33.9593 17.2532L33.3476 17.0502C32.9898 16.9338 32.5127 16.7518 32.0295 16.6175L31.323 16.3937C31.115 16.328 30.9224 16.2743 30.7511 16.2236C28.9865 16.5787 27.2157 16.9547 25.5 17.289C28.6348 22.1235 32.9225 22.1086 40.1279 26.7462C47.3333 31.3838 28.0812 36.278 28.0812 36.278C28.0812 36.278 50.2325 38.7639 54.3276 29.1396C57.8814 20.7836 46.3087 16.0326 42.6541 15.5163C39.4275 15.0567 37.6262 14.5643 33.6015 15.6804L33.8308 15.764ZM38.1797 35.0903C37.8066 35.1708 37.299 35.2574 36.7974 35.3469C36.2958 35.4364 35.7851 35.514 35.4059 35.5677L34.7728 35.6602L34.7392 35.4454L35.3508 35.335C35.727 35.2693 36.2255 35.1678 36.7271 35.0723C37.2286 34.9768 37.721 34.8634 38.0941 34.7739L38.7058 34.6307L38.7822 34.9709L38.1797 35.0903ZM44.2168 33.3982C44.0425 33.4698 43.8346 33.5533 43.6052 33.6339L42.8865 33.8876L42.1647 34.1144C41.9353 34.192 41.7182 34.2457 41.5316 34.2994L40.92 34.4725L40.8007 34.0726L41.4124 33.8816C41.5928 33.8249 41.8069 33.7622 42.024 33.6787L42.7274 33.434L43.4125 33.1654C43.6327 33.0818 43.8346 32.9923 44.0242 32.9147L44.6083 32.6551L44.8316 33.1564L44.2168 33.3982ZM47.2507 23.1441L47.373 23.2665C47.4495 23.3411 47.5718 23.4664 47.7033 23.6127C48.0337 23.9673 48.3353 24.3465 48.6055 24.7467C48.8848 25.1519 49.1166 25.5863 49.2967 26.0419C49.3701 26.2299 49.4221 26.391 49.4557 26.5044L49.5047 26.6835L48.6973 26.8894C48.6973 26.8894 48.682 26.8327 48.6514 26.7372C48.6097 26.6054 48.5607 26.4759 48.5046 26.3493C48.3346 25.9562 48.1202 25.5828 47.8654 25.2361C47.6075 24.8811 47.3233 24.545 47.0152 24.2304C46.8867 24.0991 46.7858 24.0006 46.7094 23.932L46.584 23.8126L47.2507 23.1441ZM46.5289 31.533C46.6176 31.4733 46.743 31.3808 46.8867 31.2704C47.2377 31.003 47.5613 30.7032 47.8532 30.3751C48.005 30.2026 48.143 30.019 48.266 29.826C48.375 29.6611 48.4691 29.4874 48.5474 29.3067C48.5799 29.2377 48.6085 29.1669 48.633 29.0948C48.656 29.0404 48.6754 28.9846 48.6911 28.9277L48.7401 28.7636L49.4741 28.9844C49.4741 28.9844 49.4557 29.0441 49.419 29.1485C49.3976 29.2176 49.3721 29.2853 49.3426 29.3515C49.3086 29.44 49.2698 29.5266 49.2264 29.6111C49.1258 29.819 49.0082 30.0186 48.8746 30.2079C48.7257 30.4249 48.5601 30.6304 48.3792 30.8227C48.0485 31.1773 47.6828 31.4992 47.2874 31.7837C47.1253 31.9 46.9816 31.9926 46.8959 32.0552L46.7461 32.1537L46.3913 31.6404L46.5289 31.533ZM42.1311 19.4884L42.6816 19.8047C42.8437 19.9002 43.0363 20.0077 43.2443 20.139L43.8957 20.5389L44.5288 20.9596C44.7337 21.091 44.9172 21.2223 45.0732 21.3386L45.5992 21.7177L44.9875 22.5115L44.4768 22.1623C44.3239 22.0579 44.1434 21.9355 43.9447 21.8161L43.333 21.4282L42.703 21.0671C42.5042 20.9477 42.3054 20.8462 42.1372 20.7537L41.5775 20.4553L42.1311 19.4884ZM36.464 16.7846L37.0512 17.0323C37.3999 17.1785 37.877 17.3934 38.3449 17.5993C38.8128 17.8052 39.2807 18.0261 39.6263 18.1962L40.2043 18.4737L39.6752 19.5272L39.1003 19.2705C38.7578 19.1124 38.296 18.9184 37.8342 18.7214C37.3724 18.5245 36.9167 18.3424 36.5497 18.2051L35.9564 17.9754L36.464 16.7846Z" fill="#228FBD"/>
</g>
<defs>
<linearGradient id="paint0_linear_235_2529" x1="32.5" y1="0" x2="105" y2="101.5" gradientUnits="userSpaceOnUse">
<stop stop-color="#007AFF"/>
<stop offset="1" stop-color="#007AFF" stop-opacity="0"/>
</linearGradient>
<linearGradient id="paint1_linear_235_2529" x1="23.7498" y1="48.3942" x2="23.7498" y2="31.0226" gradientUnits="userSpaceOnUse">
<stop stop-color="#202020"/>
<stop offset="1" stop-color="#7C7C7C"/>
</linearGradient>
<clipPath id="clip0_235_2529">
<rect width="46" height="34" fill="white" transform="translate(9 15)"/>
</clipPath>
</defs>
</svg>
