<svg width="65" height="65" viewBox="0 0 65 65" fill="none" xmlns="http://www.w3.org/2000/svg">
<g id="Group 34377">
<circle id="Ellipse 102" cx="32.5" cy="32.5" r="32" stroke="url(#paint0_linear_228_2524)"/>
<circle id="Ellipse 99" cx="32.5" cy="32.5" r="27.5" fill="#D9D9D9"/>
<g id="Group 34372">
<rect id="Rectangle 4421" x="24" y="35.0241" width="17.2627" height="5.06763" fill="#007AFF"/>
<path id="Vector" d="M48.45 30.3C48.2438 29.9563 46.2081 29.0769 46.2081 29.0769C46.5621 28.8941 46.8041 28.8563 46.8041 28.1C46.8041 27.275 46.8 27 46.25 27H44.3841C44.3766 26.9835 44.3683 26.9663 44.3608 26.9491C43.1562 24.3187 42.9947 23.6539 41.1982 22.7588C38.7886 21.5605 34.271 21.5 32.5 21.5C30.729 21.5 26.2114 21.5605 23.8038 22.7588C22.0053 23.6526 22.05 24.1125 20.6413 26.9491C20.6413 26.9567 20.6269 26.9766 20.6138 27H18.7459C18.2 27 18.1959 27.275 18.1959 28.1C18.1959 28.8563 18.4379 28.8941 18.7919 29.0769C18.7919 29.0769 16.825 30.025 16.55 30.3C16.275 30.575 16 32.5 16 35.8C16 39.1 16.275 42.4 16.275 42.4H17.0959C17.0959 43.3625 17.2375 43.5 17.65 43.5H23.15C23.5625 43.5 23.7 43.3625 23.7 42.4H41.3C41.3 43.3625 41.4375 43.5 41.85 43.5H47.4875C47.7625 43.5 47.9 43.2938 47.9 42.4H48.725C48.725 42.4 49 39.0312 49 35.8C49 32.5688 48.6562 30.6438 48.45 30.3ZM23.5116 33.3896C22.2595 33.5265 21.001 33.5967 19.7414 33.6C18.3375 33.6 18.2894 33.6901 18.1904 32.8135C18.1531 32.4123 18.1649 32.008 18.2254 31.6097L18.2687 31.4H18.475C19.3 31.4 20.0748 31.4351 21.5378 31.8661C22.2819 32.0894 22.9818 32.4397 23.6065 32.9015C23.9062 33.1187 23.975 33.325 23.975 33.325L23.5116 33.3896ZM40.5039 38.3396L40.2 39.1H24.8C24.8 39.1 24.8268 39.0581 24.4563 38.3314C24.1813 37.7938 24.525 37.45 25.0688 37.2548C26.1221 36.8753 29.2 35.8 32.5 35.8C35.8 35.8 38.9391 36.7268 39.9594 37.2548C40.3375 37.45 40.8071 37.5875 40.5039 38.3438V38.3396ZM22.8351 28.9532C22.6131 28.966 22.3905 28.9676 22.1683 28.958C22.3477 28.639 22.4474 28.2836 22.6227 27.9123C23.1727 26.7436 23.8018 25.4208 24.9217 24.8633C26.5401 24.0575 29.8944 23.6945 32.5 23.6945C35.1056 23.6945 38.4599 24.0547 40.0783 24.8633C41.1983 25.4208 41.8246 26.7443 42.3773 27.9123C42.554 28.287 42.6523 28.6452 42.8366 28.9663C42.6991 28.9738 42.5409 28.9663 42.1635 28.9532H22.8351ZM46.7409 32.8107C46.5938 33.6687 46.7312 33.6 45.2586 33.6C43.999 33.5967 42.7405 33.5265 41.4884 33.3896C41.2924 33.3546 41.2367 33.0239 41.3935 32.9015C42.015 32.4346 42.7159 32.0838 43.4622 31.8661C44.9252 31.4351 45.7488 31.3773 46.5621 31.4062C46.6168 31.4083 46.6687 31.4305 46.7079 31.4686C46.7471 31.5067 46.7709 31.5579 46.7746 31.6124C46.8134 32.0126 46.8021 32.4161 46.7409 32.8135V32.8107Z" fill="#202020"/>
</g>
</g>
<defs>
<linearGradient id="paint0_linear_228_2524" x1="32.5" y1="0" x2="105" y2="101.5" gradientUnits="userSpaceOnUse">
<stop stop-color="#007AFF"/>
<stop offset="0.71875" stop-color="#007AFF" stop-opacity="0"/>
</linearGradient>
</defs>
</svg>
