<svg width="65" height="65" viewBox="0 0 65 65" fill="none" xmlns="http://www.w3.org/2000/svg">
<g id="Group 34374">
<g id="Group 34321">
<circle id="Ellipse 102" cx="32.5" cy="32.5" r="32" stroke="url(#paint0_linear_228_2521)"/>
<circle id="Ellipse 99" cx="32.5" cy="32.5" r="27.5" fill="#D9D9D9"/>
</g>
<g id="Group">
<path id="Vector" fill-rule="evenodd" clip-rule="evenodd" d="M32.2442 34.6111H32.2714C36.0301 34.6111 39.0769 31.5643 39.0769 27.8056C39.0769 24.0468 36.0301 21 32.2714 21H32.2169C28.4834 21.0293 25.4658 24.0652 25.4658 27.8056C25.4658 31.5459 28.4834 34.5818 32.2169 34.6111H32.2442ZM37.6736 28.4861H36.3125C36.2853 28.9557 36.2281 29.411 36.1458 29.8472H37.3204C37.494 29.4185 37.6144 28.9618 37.6743 28.4861H37.6736ZM36.5214 31.2083H35.7864C35.6469 31.6099 35.4836 31.9862 35.2992 32.3312C35.7613 32.0212 36.1735 31.6426 36.5214 31.2083ZM34.7574 29.8472C34.8507 29.4205 34.9167 28.9645 34.9487 28.4861H32.9519V29.8472H34.7574ZM32.9519 31.2083H34.3287C34.2255 31.4526 34.1057 31.6896 33.97 31.9175C33.6298 32.483 33.2779 32.8328 32.9519 33.0309V31.2083ZM31.5908 29.8472V28.4861H29.5505C29.5825 28.9645 29.6485 29.4205 29.7418 29.8472H31.5908ZM30.1705 31.2083H31.5908V33.0567C31.2533 32.8634 30.8844 32.5089 30.5292 31.9175C30.3935 31.6896 30.2737 31.4526 30.1705 31.2083ZM28.3534 29.8472C28.2691 29.3975 28.2134 28.9429 28.1867 28.4861H26.8691C26.9283 28.9618 27.0488 29.4185 27.223 29.8472H28.3534ZM28.0213 31.2083H28.7128C28.8455 31.5922 29.0013 31.9529 29.1755 32.2843C28.7408 31.9833 28.3521 31.6208 28.0213 31.2083ZM36.3125 27.125C36.2857 26.6682 36.2301 26.2136 36.1458 25.7639H37.3204C37.494 26.1926 37.6144 26.6493 37.6743 27.125H36.3132H36.3125ZM36.5214 24.4028H35.7864C35.6536 24.0163 35.4907 23.6409 35.2992 23.2799C35.7613 23.5899 36.1735 23.9685 36.5214 24.4028ZM32.9519 24.4028H34.3287C34.2255 24.1585 34.1057 23.9215 33.97 23.6936C33.6298 23.1274 33.2779 22.7783 32.9519 22.5802V24.4028ZM34.7574 25.7639H32.9519V27.125H34.9487C34.9186 26.6672 34.8546 26.2123 34.7574 25.7639ZM31.5908 22.5544V24.4028H30.1705C30.2794 24.1462 30.4005 23.9087 30.5292 23.6936C30.8837 23.1022 31.2533 22.7477 31.5908 22.5544ZM31.5908 25.7639H29.7418C29.6446 26.2123 29.5806 26.6672 29.5505 27.125H31.5908V25.7639ZM29.1748 23.3268C28.994 23.6735 28.8394 24.0331 28.7121 24.4028H28.0213C28.3521 23.9903 28.7402 23.6279 29.1748 23.3268ZM28.3541 25.7639H27.223C27.0463 26.2003 26.9273 26.6578 26.8691 27.125H28.1874C28.2146 26.6554 28.2718 26.2001 28.3541 25.7639Z" fill="#007AFF"/>
<path id="Vector_2" d="M22.7964 39.1171C23.1823 39.5268 23.5654 39.9338 23.9261 40.451V41.4167H28.9847V40.451C28.8942 39.6997 28.7349 38.346 28.7206 37.9697C28.7016 37.4402 27.9911 36.4752 27.9911 36.4752L25.8099 33.7257C25.8099 33.7257 25.1926 33.0738 24.8394 32.351C24.4855 31.6276 23.7342 32.5375 23.6348 33.1881C23.5341 33.8387 23.7247 34.1817 23.7247 34.1817L24.9701 36.6576C24.9701 36.6576 23.526 34.6792 23.0775 33.8843C22.8502 33.4814 22.7869 32.628 22.7154 31.6746C22.6467 30.7456 22.5705 29.7214 22.3289 28.9251C21.8389 27.3122 20.4219 27.7158 20.1763 28.4372C19.9313 29.1579 19.9864 33.9211 20.0755 34.7153C20.1456 35.3373 20.5206 35.9457 20.9432 36.6317C21.0603 36.8223 21.1814 37.0183 21.3005 37.2218C21.7742 38.033 22.2873 38.5781 22.7964 39.1171ZM40.5752 40.451C40.9359 39.9338 41.3191 39.5268 41.705 39.1171C42.214 38.5781 42.7272 38.033 43.2015 37.2218C43.3199 37.0176 43.4411 36.8223 43.5581 36.6324C43.9807 35.9464 44.3557 35.3373 44.4258 34.7153C44.515 33.9211 44.5708 29.1579 44.3251 28.4372C44.0794 27.7158 42.6625 27.3122 42.1725 28.9258C41.9316 29.722 41.8554 30.7456 41.7859 31.6746C41.7145 32.628 41.6512 33.4814 41.4239 33.8843C40.9754 34.6799 39.5306 36.6576 39.5306 36.6576L40.7767 34.1817C40.7767 34.1817 40.9672 33.8387 40.8672 33.1881C40.7671 32.5375 40.0151 31.6276 39.6626 32.351C39.3087 33.0738 38.6915 33.7257 38.6915 33.7257L36.5103 36.4752C36.5103 36.4752 35.7998 37.4402 35.7807 37.9697C35.7671 38.346 35.6072 39.6997 35.5167 40.451V41.4167H40.5752V40.451ZM33.6111 44.8195C33.6111 45 33.6828 45.1731 33.8104 45.3007C33.9381 45.4283 34.1112 45.5 34.2917 45.5H39.7361C39.9166 45.5 40.0897 45.4283 40.2173 45.3007C40.345 45.1731 40.4167 45 40.4167 44.8195V43.4584C40.4167 43.2779 40.345 43.1048 40.2173 42.9771C40.0897 42.8495 39.9166 42.7778 39.7361 42.7778H34.2917C34.1112 42.7778 33.9381 42.8495 33.8104 42.9771C33.6828 43.1048 33.6111 43.2779 33.6111 43.4584V44.8195ZM30.8902 44.8195C30.8902 45 30.8185 45.1731 30.6909 45.3007C30.5633 45.4283 30.3902 45.5 30.2097 45.5H24.7652C24.5848 45.5 24.4117 45.4283 24.284 45.3007C24.1564 45.1731 24.0847 45 24.0847 44.8195V43.4584C24.0847 43.2779 24.1564 43.1048 24.284 42.9771C24.4117 42.8495 24.5848 42.7778 24.7652 42.7778H30.2097C30.3902 42.7778 30.5633 42.8495 30.6909 42.9771C30.8185 43.1048 30.8902 43.2779 30.8902 43.4584V44.8195Z" fill="#202020"/>
</g>
</g>
<defs>
<linearGradient id="paint0_linear_228_2521" x1="32.5" y1="0" x2="105" y2="101.5" gradientUnits="userSpaceOnUse">
<stop stop-color="#007AFF"/>
<stop offset="0.65625" stop-color="#007AFF" stop-opacity="0"/>
</linearGradient>
</defs>
</svg>
