<svg width="65" height="65" viewBox="0 0 65 65" fill="none" xmlns="http://www.w3.org/2000/svg">
<g id="Group 34381">
<circle id="Ellipse 102" cx="32.5" cy="32.5" r="32" stroke="#007AFF"/>
<circle id="Ellipse 99" cx="32.5" cy="32.5" r="27.5" fill="#D9D9D9"/>
<path id="Vector" d="M53.892 23.0997C47.4346 25.3005 43.901 14.1088 37.3359 16.6612L37.2283 16.7036C36.6451 20.8419 35.2198 24.812 33.043 28.3621L33.1685 28.3197C40.8158 26.222 42.1371 36.4921 49.6887 34.7521H49.8143C51.9906 31.2018 53.4158 27.2318 53.9996 23.0937L53.892 23.0997ZM51.8232 23.4756C51.6917 24.2637 51.5303 25.0458 51.333 25.8218C50.6727 25.7887 50.0232 25.6389 49.4137 25.3793C49.617 24.5972 49.7844 23.803 49.9279 23.0027C50.5275 23.2747 51.1685 23.4408 51.8232 23.4938V23.4756ZM46.9742 26.7737C47.2373 26.0037 47.4645 25.2156 47.6678 24.4153C48.2064 24.8061 48.7859 25.1355 49.3957 25.3975C49.1924 26.1856 48.9593 26.9677 48.6902 27.7376C48.084 27.4833 47.5083 27.1599 46.9742 26.7737ZM43.7395 24.0212C43.9787 23.2392 44.188 22.4389 44.3374 21.5962C44.8756 22.0691 45.4077 22.5601 45.9458 23.027C45.7545 23.8353 45.5333 24.6295 45.2821 25.4096C44.7859 24.9731 44.2537 24.4941 43.7395 24.0212ZM40.3673 21.675C40.5886 20.8929 40.7799 20.0926 40.9652 19.2924C41.5791 19.5549 42.161 19.8885 42.6992 20.2867C42.5318 21.095 42.3325 21.9034 42.1013 22.7117C41.5602 22.3063 40.9791 21.9588 40.3673 21.675ZM39.596 23.9727C38.99 23.6993 38.3435 23.5293 37.6827 23.4695C37.9637 22.7238 38.2149 21.9599 38.4361 21.1961C39.094 21.2531 39.7383 21.419 40.3434 21.6871C40.1282 22.4328 39.877 23.1967 39.596 23.9424V23.9727ZM48.164 22.0024C48.0265 22.8208 47.8531 23.6272 47.6558 24.4274C47.0786 24.0133 46.5238 23.5681 45.9936 23.0937C46.185 22.2934 46.3464 21.481 46.4779 20.6686C47.0171 21.1326 47.58 21.5677 48.164 21.9721V22.0024ZM44.8038 19.1711C44.6842 20.0017 44.5407 20.8202 44.3614 21.6265C43.8273 21.1461 43.2685 20.6948 42.6872 20.2745C42.8546 19.4682 42.9921 18.6558 43.0938 17.8495C43.6869 18.2476 44.2577 18.6787 44.8038 19.1408V19.1711ZM41.306 16.8249C41.2104 17.6312 41.0848 18.4375 40.9294 19.2499C40.3229 18.991 39.6785 18.8353 39.022 18.7892C39.1775 18.0071 39.3031 17.225 39.3927 16.4369C40.0478 16.4531 40.6952 16.5844 41.306 16.8249ZM36.9174 19.0802C37.5896 18.8548 38.2969 18.7562 39.0041 18.7892C38.8427 19.5834 38.6513 20.3655 38.4062 21.1475C37.688 21.0945 36.9663 21.1767 36.2776 21.3901C36.5407 20.6262 36.744 19.8562 36.9174 19.0802ZM35.4824 23.6939C36.188 23.4833 36.9252 23.4032 37.6588 23.4574C37.3718 24.2213 37.0609 24.9731 36.7022 25.7188C35.9481 25.6668 35.191 25.751 34.466 25.9674C34.8367 25.2095 35.1775 24.4517 35.4824 23.6939ZM35.5781 27.9377C35.9847 27.2163 36.3614 26.4948 36.7141 25.7552C37.38 25.8108 38.0324 25.9767 38.6454 26.2462C38.3065 26.9778 37.9358 27.6932 37.5333 28.3924C36.9117 28.1264 36.2511 27.9666 35.5781 27.9195V27.9377ZM40.7978 30.6416C40.3047 30.1867 39.7856 29.7616 39.2433 29.3685C39.6439 28.6774 40.0205 27.962 40.3673 27.2344C39.8355 26.8447 39.2666 26.5096 38.6693 26.2341C39.0101 25.5005 39.321 24.7488 39.608 23.9909C40.2125 24.267 40.7858 24.6085 41.318 25.0095C41.599 24.2516 41.8561 23.4877 42.0833 22.7056C42.6514 23.1261 43.1982 23.5753 43.7216 24.0516C43.4824 24.8276 43.2134 25.5915 42.9204 26.3372C42.3942 25.8703 41.8681 25.4096 41.318 25.0095C41.025 25.7673 40.7201 26.513 40.3673 27.2344C40.9114 27.6346 41.4316 28.0832 41.9458 28.544C41.593 29.2412 41.2104 29.9444 40.7978 30.6235V30.6416ZM43.8352 33.3031C43.3031 32.9091 42.8008 32.4665 42.2986 32.0179C42.7171 31.3449 43.1117 30.6538 43.4944 29.9444C42.9802 29.4837 42.4779 29.0047 41.9637 28.544C42.3165 27.8286 42.6394 27.0889 42.9383 26.3372C43.4645 26.8101 43.9787 27.2951 44.5049 27.7558C44.8098 27.0162 45.1028 26.2584 45.3359 25.4884C45.8581 25.9567 46.405 26.3959 46.9742 26.804C46.7111 27.5679 46.4241 28.3197 46.1072 29.0593C45.5436 28.6493 45.0026 28.2081 44.4869 27.7376C44.176 28.4833 43.8412 29.2169 43.4765 29.9263C43.9755 30.3872 44.5006 30.8184 45.049 31.2176C44.6723 31.9269 44.2537 32.6181 43.8352 33.285V33.3031ZM47.4585 34.8491C46.7865 34.7795 46.1302 34.5993 45.5153 34.3156C45.9578 33.6366 46.3703 32.9394 46.753 32.224C46.1492 31.9626 45.5773 31.631 45.049 31.2358C45.4256 30.5265 45.7724 29.7989 46.0893 29.0593C46.6292 29.4498 47.2109 29.7772 47.8232 30.0354C48.1461 29.2957 48.4391 28.544 48.7022 27.7801C49.3192 28.0329 49.9745 28.1764 50.6394 28.2045C50.3823 28.9684 50.0893 29.7262 49.7664 30.4719C49.0987 30.4411 48.4413 30.2935 47.8232 30.0354C47.4944 30.7811 47.1416 31.5086 46.753 32.224C47.3715 32.4938 48.0305 32.6557 48.7022 32.703C48.3195 33.4123 47.901 34.1337 47.4585 34.8309V34.8491ZM50.9862 32.4241C50.2469 32.6524 49.4737 32.7468 48.7022 32.703C49.0908 31.9694 49.4436 31.2237 49.7664 30.4719C50.5319 30.506 51.2973 30.4013 52.0265 30.1627C51.7037 30.8963 51.3629 31.6541 50.9862 32.4059V32.4241ZM52.8397 27.8468C52.1402 28.0916 51.403 28.2066 50.6633 28.1863C50.9204 27.4163 51.1536 26.6403 51.3449 25.8582C52.0635 25.8854 52.781 25.7786 53.4615 25.543C53.2881 26.2947 53.0788 27.0647 52.8397 27.8286V27.8468Z" fill="#007AFF"/>
<path id="Vector_2" d="M36.9376 15.007L28.5938 38.3152L29.3862 38.6069L37.7301 15.2986L36.9376 15.007Z" fill="#202020"/>
<path id="Vector_3" d="M10 23.0633C10.5838 27.2014 12.009 31.1714 14.1854 34.7217H14.3109C21.8445 36.4617 23.1839 26.1916 30.8311 28.2893L30.9567 28.3317C28.7823 24.7804 27.3573 20.8108 26.7713 16.6732L26.6697 16.6308C20.0927 14.0784 16.565 25.2701 10.1076 23.0693L10 23.0633ZM14.0717 23.0026C14.2093 23.8029 14.3767 24.5971 14.58 25.3792C13.9707 25.6394 13.3211 25.7892 12.6607 25.8218C12.4694 25.0457 12.3019 24.2637 12.1764 23.4755C12.83 23.4276 13.4708 23.2677 14.0717 23.0026ZM15.3034 27.7376C15.0404 26.9676 14.8012 26.1855 14.5979 25.3974C15.2097 25.1355 15.7911 24.8061 16.3318 24.4152C16.5292 25.2155 16.7623 26.0036 17.0194 26.7736C16.4853 27.1599 15.9096 27.4833 15.3034 27.7376ZM18.6816 25.4398C18.4305 24.6557 18.2093 23.8615 18.0179 23.0572C18.5561 22.5904 19.0882 22.0993 19.6263 21.6264C19.8057 22.4388 20.0149 23.2391 20.2242 24.0515C19.7399 24.494 19.2078 24.973 18.6816 25.4398ZM21.9163 22.6571C21.6891 21.8487 21.4898 21.0404 21.3184 20.232C21.8582 19.8363 22.4397 19.5028 23.0523 19.2377C23.2078 20.038 23.3991 20.8383 23.6502 21.6204C23.0379 21.9031 22.4567 22.2506 21.9163 22.6571ZM23.6502 21.6567C24.2556 21.3893 24.8997 21.2235 25.5576 21.1657C25.7788 21.9295 26.0299 22.6934 26.3109 23.4391C25.6504 23.5004 25.0042 23.6703 24.3976 23.9423C24.1166 23.1966 23.8715 22.4327 23.6502 21.6749V21.6567ZM17.5217 20.6079C17.6532 21.4385 17.8087 22.2509 18 23.033C17.4699 23.5074 16.915 23.9526 16.3378 24.3667C16.1405 23.5786 15.9731 22.7723 15.8296 21.9417C16.4164 21.5276 16.9812 21.0823 17.5217 20.6079ZM20.8999 17.8009C21.0015 18.6254 21.139 19.4378 21.3064 20.2259C20.7263 20.6478 20.1676 21.099 19.6323 21.5779C19.4589 20.7716 19.3094 19.9531 19.1898 19.1225C19.7363 18.6515 20.3071 18.2103 20.8999 17.8009ZM24.6009 16.4186C24.6906 17.2067 24.8161 17.9888 24.9716 18.7709C24.317 18.8162 23.6744 18.972 23.0703 19.2317C22.9088 18.4375 22.7833 17.6311 22.6936 16.8066C23.3025 16.5668 23.9478 16.4355 24.6009 16.4186ZM27.6981 21.39C27.0093 21.1772 26.2877 21.095 25.5695 21.1475C25.3423 20.3654 25.151 19.5833 24.9716 18.7891C25.6788 18.7566 26.386 18.8552 27.0583 19.0801C27.2496 19.8561 27.4589 20.6261 27.6981 21.39ZM29.5336 25.9673C28.8066 25.7508 28.0475 25.6666 27.2915 25.7187C26.9447 24.973 26.6218 24.2212 26.3348 23.4573C27.0704 23.4034 27.8095 23.4835 28.5172 23.6938C28.8221 24.4516 29.1629 25.2094 29.5336 25.9673ZM26.4604 28.3923C26.0618 27.6931 25.6911 26.9777 25.3483 26.2461C25.9631 25.9759 26.6176 25.81 27.2855 25.7551C27.6323 26.4947 28.009 27.2162 28.4155 27.9376C27.7446 27.9732 27.084 28.1206 26.4604 28.3741V28.3923ZM22.0478 28.5439C22.562 28.0831 23.0882 27.6345 23.6323 27.2344C23.2855 26.5129 22.9686 25.7672 22.6816 25.0094C22.1315 25.4095 21.5994 25.8703 21.0732 26.3371C20.7803 25.5914 20.5112 24.8275 20.272 24.0515C20.8102 23.5725 21.3543 23.1118 21.9103 22.7056C22.1375 23.4876 22.3946 24.2515 22.6816 25.0094C23.2129 24.6071 23.7864 24.2656 24.3916 23.9909C24.6726 24.7487 24.9895 25.5004 25.3303 26.234C24.7323 26.5081 24.1633 26.8433 23.6323 27.2344C23.9731 27.9619 24.3498 28.6773 24.7504 29.3684C24.208 29.7615 23.6889 30.1866 23.1958 30.6416C22.7833 29.9444 22.4066 29.2411 22.0478 28.5257V28.5439ZM18.9507 31.2357C19.496 30.8349 20.0189 30.4038 20.5172 29.9444C20.1465 29.235 19.8117 28.5015 19.5007 27.7558C18.9904 28.2194 18.4555 28.6546 17.8984 29.0592C17.5795 28.3196 17.2925 27.5678 17.0374 26.8039C17.6046 26.3958 18.1495 25.9566 18.6697 25.4883C18.9208 26.2583 19.1958 27.0161 19.5007 27.7558C20.0269 27.295 20.5411 26.81 21.0673 26.3371C21.3662 27.0889 21.6652 27.8285 22.0419 28.5439C21.5336 29.0047 21.0254 29.4836 20.5172 29.9444C20.8759 30.6537 21.2706 31.3448 21.713 32.0178C21.2167 32.4664 20.7085 32.909 20.1764 33.3031C19.7399 32.618 19.3274 31.9269 18.9507 31.2175V31.2357ZM15.2915 32.7029C15.9632 32.6556 16.6222 32.4937 17.2407 32.2239C16.858 31.5085 16.4993 30.781 16.1764 30.0353C15.5561 30.2928 14.8968 30.4404 14.2272 30.4718C13.9043 29.7261 13.6293 28.9683 13.3543 28.2044C14.0211 28.1764 14.6784 28.0329 15.2975 27.78C15.5605 28.5439 15.8535 29.2957 16.1764 30.0353C16.7861 29.7755 17.3656 29.4482 17.9043 29.0592C18.2272 29.7989 18.574 30.5264 18.9507 31.2357C18.4194 31.6297 17.8457 31.9613 17.2407 32.2239C17.6393 32.9393 18.0518 33.6365 18.4783 34.3155C17.8635 34.5992 17.2071 34.7794 16.5351 34.849C16.0927 34.1337 15.6801 33.4122 15.2915 32.6847V32.7029ZM11.9671 30.1626C12.6897 30.4043 13.449 30.5131 14.2093 30.4839C14.5321 31.2357 14.8909 31.9814 15.2735 32.715C14.502 32.7588 13.7288 32.6644 12.9895 32.4361C12.6368 31.654 12.29 30.8962 11.9671 30.1626ZM10.5142 25.555C11.1947 25.7906 11.9122 25.8975 12.6308 25.8703C12.8261 26.6544 13.0533 27.4304 13.3124 28.1983C12.5727 28.2183 11.8356 28.1033 11.136 27.8588C10.9148 27.0646 10.7055 26.2947 10.5321 25.5247L10.5142 25.555Z" fill="#007AFF"/>
<path id="Vector_4" d="M27.0445 14.9973L26.252 15.2888L34.5918 38.5985L35.3843 38.307L27.0445 14.9973Z" fill="#202020"/>
<path id="Vector_5" d="M44.6491 34.7582C44.1246 34.9408 43.6732 35.2921 43.3636 35.7585C43.251 35.9396 43.1947 36.1508 43.2021 36.3648C43.1971 36.4554 43.2122 36.5461 43.2463 36.63C43.2805 36.714 43.3328 36.7891 43.3994 36.8498C43.487 36.8993 43.5835 36.9304 43.6831 36.9413C43.7828 36.9522 43.8836 36.9426 43.9795 36.9132C44.0755 36.8838 44.1646 36.8351 44.2416 36.7701C44.3186 36.705 44.382 36.6249 44.4278 36.5345C44.6276 36.2008 44.7273 35.8153 44.7148 35.4251C44.7371 35.2005 44.7148 34.9738 44.6491 34.7582Z" fill="#202020"/>
<path id="Vector_6" d="M44.649 34.7582L44.4697 35.1159C44.362 35.3281 44.2126 35.607 44.0631 35.8676C43.9278 36.1097 43.7801 36.3444 43.6206 36.5709L43.3994 36.868C43.487 36.9175 43.5835 36.9486 43.6831 36.9595C43.7828 36.9704 43.8836 36.9608 43.9795 36.9314C44.0755 36.902 44.1646 36.8533 44.2416 36.7883C44.3186 36.7232 44.382 36.6431 44.4278 36.5527C44.6276 36.2189 44.7273 35.8335 44.7148 35.4433C44.7396 35.2127 44.7172 34.9795 44.649 34.7582Z" fill="#202020"/>
<path id="Vector_7" d="M45.0849 37.1772C44.5431 37.2674 44.0431 37.5283 43.6559 37.9229C43.5087 38.059 43.4118 38.2421 43.3814 38.4417C43.3509 38.6413 43.3887 38.8455 43.4885 39.0203C43.5658 39.0854 43.6553 39.1341 43.7516 39.1633C43.8479 39.1926 43.9491 39.2018 44.049 39.1905C44.1489 39.1792 44.2456 39.1475 44.3332 39.0974C44.4207 39.0474 44.4974 38.9799 44.5587 38.899C44.81 38.6068 44.9775 38.2503 45.043 37.8684C45.1191 37.6462 45.1335 37.4072 45.0849 37.1772Z" fill="#202020"/>
<path id="Vector_8" d="M45.0848 37.1772C45.0161 37.2893 44.9402 37.3966 44.8576 37.4986C44.7141 37.6865 44.5168 37.929 44.3135 38.1594C44.0589 38.4677 43.781 38.7556 43.4824 39.0203C43.5598 39.0854 43.6493 39.1341 43.7456 39.1633C43.8419 39.1926 43.9431 39.2018 44.043 39.1905C44.1429 39.1792 44.2396 39.1475 44.3271 39.0974C44.4147 39.0474 44.4914 38.9799 44.5527 38.899C44.8039 38.6068 44.9714 38.2503 45.037 37.8684C45.115 37.6468 45.1316 37.4077 45.0848 37.1772Z" fill="#202020"/>
<path id="Vector_9" d="M45.0849 39.6386C44.5331 39.6174 43.9894 39.7792 43.5363 40.0993C43.367 40.2075 43.2392 40.371 43.174 40.5628C43.1088 40.7546 43.11 40.9632 43.1776 41.1542C43.2429 41.2315 43.3226 41.2948 43.4122 41.3407C43.5018 41.3865 43.5994 41.4138 43.6995 41.4212C43.7996 41.4285 43.9001 41.4156 43.9952 41.3833C44.0904 41.3511 44.1783 41.3 44.2538 41.233C44.717 40.825 45.0134 40.2564 45.0849 39.6386Z" fill="#202020"/>
<path id="Vector_10" d="M45.0851 39.6385L44.81 39.9114C44.6306 40.069 44.3915 40.2691 44.1523 40.457C43.9132 40.6449 43.68 40.8268 43.4946 40.9481L43.1777 41.1542C43.243 41.2315 43.3228 41.2948 43.4123 41.3407C43.5019 41.3865 43.5996 41.4138 43.6996 41.4212C43.7997 41.4285 43.9002 41.4156 43.9954 41.3833C44.0905 41.3511 44.1784 41.3 44.254 41.233C44.7172 40.825 45.0135 40.2564 45.0851 39.6385Z" fill="#202020"/>
<path id="Vector_11" d="M44.6365 42.0515C44.1003 41.9309 43.5399 41.9904 43.0401 42.2213C42.8527 42.2941 42.696 42.4306 42.5968 42.6075C42.4975 42.7844 42.4619 42.9908 42.496 43.1913C42.5454 43.2798 42.6119 43.3572 42.6914 43.4191C42.771 43.481 42.862 43.526 42.9591 43.5514C43.0562 43.5769 43.1573 43.5823 43.2565 43.5673C43.3556 43.5523 43.4508 43.5172 43.5363 43.4641C43.8694 43.274 44.1508 43.0033 44.3555 42.676C44.4999 42.4954 44.5966 42.2805 44.6365 42.0515Z" fill="#202020"/>
<path id="Vector_12" d="M44.6366 42.0515C44.2964 42.2788 43.9407 42.4814 43.5723 42.6578C43.3033 42.7972 43.0342 42.9306 42.8369 43.0215C42.6396 43.1125 42.4961 43.161 42.4961 43.161C42.5455 43.2494 42.612 43.3269 42.6916 43.3888C42.7711 43.4506 42.8621 43.4956 42.9592 43.5211C43.0563 43.5465 43.1574 43.5519 43.2566 43.5369C43.3558 43.5219 43.4509 43.4869 43.5365 43.4338C43.8695 43.2437 44.1509 42.9729 44.3556 42.6457C44.4955 42.4737 44.592 42.2698 44.6366 42.0515Z" fill="#202020"/>
<path id="Vector_13" d="M43.764 44.3432C43.2579 44.1243 42.6951 44.0796 42.1616 44.2159C41.9636 44.249 41.7838 44.3528 41.6545 44.5083C41.5252 44.6639 41.4548 44.8612 41.4561 45.0646C41.4888 45.1609 41.5402 45.2495 41.6073 45.3254C41.6743 45.4012 41.7556 45.4626 41.8464 45.5061C41.9372 45.5496 42.0357 45.5743 42.136 45.5786C42.2364 45.583 42.3365 45.5669 42.4307 45.5315C42.7884 45.4079 43.1121 45.2001 43.3754 44.9252C43.5476 44.7643 43.6806 44.5651 43.764 44.3432Z" fill="#202020"/>
<path id="Vector_14" d="M43.764 44.3433L43.4052 44.4948C43.1431 44.6018 42.8757 44.6949 42.604 44.7737L41.8148 44.992C41.6968 45.0235 41.577 45.0477 41.4561 45.0647C41.4888 45.161 41.5402 45.2496 41.6073 45.3254C41.6743 45.4013 41.7556 45.4627 41.8464 45.5062C41.9372 45.5497 42.0357 45.5743 42.136 45.5787C42.2363 45.583 42.3365 45.567 42.4306 45.5315C42.7884 45.408 43.1121 45.2002 43.3753 44.9253C43.5476 44.7644 43.6806 44.5652 43.764 44.3433Z" fill="#202020"/>
<path id="Vector_15" d="M42.4904 46.4348C42.0359 46.1264 41.4934 45.9793 40.9478 46.0165C40.4695 46.059 40.0928 46.35 40.0928 46.7198C40.0928 47.0896 40.4814 47.3927 40.9597 47.326C41.3395 47.2702 41.7004 47.1226 42.0121 46.8956C42.2002 46.7758 42.3628 46.6192 42.4904 46.4348Z" fill="#202020"/>
<path id="Vector_16" d="M42.4906 46.4348L42.108 46.5197C41.8338 46.5785 41.5562 46.619 41.2769 46.6409C40.679 46.7076 40.0811 46.7198 40.0811 46.7198C40.0811 47.0653 40.4697 47.3927 40.948 47.326C41.3278 47.2702 41.6887 47.1226 42.0003 46.8956C42.1928 46.7771 42.3595 46.6204 42.4906 46.4348Z" fill="#202020"/>
<path id="Vector_17" d="M40.8577 48.2597C40.4669 47.8674 39.9572 47.6197 39.4108 47.5565C38.9504 47.5201 38.5079 47.7202 38.4481 48.0839C38.4433 48.1849 38.4587 48.2858 38.4935 48.3805C38.5283 48.4752 38.5817 48.5618 38.6504 48.6349C38.7192 48.708 38.8019 48.7662 38.8936 48.806C38.9852 48.8457 39.0839 48.8661 39.1836 48.866C39.567 48.8875 39.9495 48.8103 40.2957 48.6417C40.5046 48.5505 40.6951 48.4211 40.8577 48.2597Z" fill="#202020"/>
<path id="Vector_18" d="M40.8579 48.2596H40.4693C40.2301 48.2596 39.9372 48.2596 39.6322 48.2293C39.0343 48.1748 38.4364 48.0778 38.4364 48.0778C38.4316 48.1787 38.447 48.2796 38.4818 48.3743C38.5165 48.469 38.5699 48.5556 38.6387 48.6287C38.7075 48.7019 38.7902 48.7601 38.8819 48.7998C38.9735 48.8395 39.0722 48.86 39.1718 48.8598C39.5553 48.8813 39.9378 48.8041 40.284 48.6355C40.4967 48.5475 40.6913 48.42 40.8579 48.2596Z" fill="#202020"/>
<path id="Vector_19" d="M38.9267 49.7451C38.6098 49.2872 38.1543 48.9466 37.6292 48.775C37.4423 48.7043 37.2371 48.7006 37.0478 48.7645C36.8585 48.8285 36.6965 48.9563 36.5889 49.1267C36.5672 49.2264 36.5655 49.3294 36.5841 49.4298C36.6026 49.5301 36.641 49.6256 36.6968 49.7105C36.7527 49.7954 36.8248 49.868 36.909 49.924C36.9932 49.9799 37.0877 50.0181 37.1868 50.0361C37.7824 50.1572 38.4011 50.0537 38.9267 49.7451Z" fill="#202020"/>
<path id="Vector_20" d="M38.9266 49.745C38.9266 49.745 38.2988 49.6359 37.7308 49.4903C37.346 49.3894 36.9668 49.268 36.5947 49.1266C36.573 49.2263 36.5714 49.3293 36.5899 49.4297C36.6085 49.53 36.6468 49.6255 36.7027 49.7104C36.7585 49.7953 36.8307 49.868 36.9149 49.9239C36.9991 49.9798 37.0936 50.018 37.1926 50.036C37.7863 50.1556 38.4026 50.0522 38.9266 49.745Z" fill="#202020"/>
<path id="Vector_21" d="M36.7625 50.8484C36.5404 50.3305 36.1529 49.9034 35.6624 49.6359C35.4933 49.5272 35.2922 49.4817 35.0936 49.5071C34.895 49.5326 34.7113 49.6274 34.5742 49.7753C34.5344 49.8686 34.5134 49.9691 34.5127 50.0708C34.512 50.1725 34.5314 50.2733 34.5699 50.3672C34.6084 50.4611 34.6652 50.5462 34.7368 50.6174C34.8084 50.6886 34.8934 50.7445 34.9868 50.7817C35.5495 51.0289 36.1833 51.0527 36.7625 50.8484Z" fill="#202020"/>
<path id="Vector_22" d="M36.7625 50.8484C36.3743 50.7103 35.9932 50.5524 35.6205 50.3756C35.2612 50.1929 34.9119 49.9905 34.5742 49.7693C34.5344 49.8626 34.5134 49.9631 34.5127 50.0648C34.512 50.1665 34.5314 50.2673 34.5699 50.3612C34.6084 50.4551 34.6652 50.5402 34.7368 50.6114C34.8084 50.6826 34.8934 50.7385 34.9868 50.7757C35.5487 51.0249 36.1826 51.0509 36.7625 50.8484Z" fill="#202020"/>
<path id="Vector_23" d="M41.2282 36.3951C41.7575 36.2794 42.3102 36.3635 42.7828 36.6316C43.1355 36.8923 43.297 37.3894 43.0578 37.6561C42.8998 37.7714 42.707 37.8272 42.5128 37.8139C42.3185 37.8006 42.1349 37.7191 41.9935 37.5834C41.7414 37.3936 41.5366 37.1465 41.3956 36.8619C41.294 36.6194 41.1983 36.4254 41.2282 36.3951Z" fill="#202020"/>
<path id="Vector_24" d="M41.2283 36.395C41.5508 36.5589 41.8606 36.7474 42.155 36.9589C42.3822 37.1165 42.6094 37.2862 42.7529 37.4257C42.8497 37.496 42.9416 37.5729 43.028 37.6561C42.8699 37.7713 42.6772 37.8271 42.4829 37.8138C42.2887 37.8005 42.1051 37.719 41.9637 37.5833C41.7115 37.3935 41.5067 37.1464 41.3658 36.8618C41.294 36.6193 41.1984 36.4253 41.2283 36.395Z" fill="#202020"/>
<path id="Vector_25" d="M41.4318 38.1472C41.9766 38.1335 42.5078 38.3209 42.9266 38.6746C43.0735 38.8046 43.1645 38.9877 43.1801 39.1848C43.1957 39.3819 43.1348 39.5774 43.0103 39.7295C42.8326 39.8139 42.6316 39.8328 42.4417 39.783C42.2518 39.7332 42.0849 39.6178 41.9699 39.4567C41.7657 39.2206 41.6165 38.9408 41.5334 38.6383C41.4638 38.4843 41.4291 38.3165 41.4318 38.1472Z" fill="#202020"/>
<path id="Vector_26" d="M41.4318 38.1472L41.6949 38.3594C41.8896 38.5205 42.0752 38.6926 42.2509 38.8747C42.6336 39.2688 43.0103 39.7296 43.0103 39.7296C42.8326 39.8139 42.6316 39.8328 42.4417 39.783C42.2518 39.7332 42.0849 39.6178 41.9699 39.4568C41.7657 39.2206 41.6165 38.9409 41.5334 38.6383C41.4638 38.4844 41.4291 38.3166 41.4318 38.1472Z" fill="#202020"/>
<path id="Vector_27" d="M41.3186 39.9054C41.8544 39.9984 42.3399 40.2822 42.6878 40.7057C42.8092 40.8598 42.8659 41.0562 42.8458 41.2524C42.8256 41.4486 42.7303 41.629 42.5802 41.7545C42.2693 41.9182 41.8448 41.6757 41.6056 41.2998C41.4505 41.029 41.3565 40.7267 41.3306 40.4147C41.2849 40.2486 41.2808 40.0735 41.3186 39.9054Z" fill="#202020"/>
<path id="Vector_28" d="M41.3184 39.9054L41.5396 40.1721C41.7012 40.3662 41.8529 40.5686 41.994 40.7784C42.293 41.2331 42.5919 41.7545 42.5919 41.7545C42.281 41.9182 41.8565 41.6757 41.6174 41.2998C41.4622 41.029 41.3683 40.7267 41.3423 40.4147C41.2927 40.2496 41.2844 40.0745 41.3184 39.9054Z" fill="#202020"/>
<path id="Vector_29" d="M40.8876 41.6211C41.3947 41.8122 41.8184 42.1795 42.0834 42.6578C42.1297 42.7438 42.159 42.8382 42.1693 42.9356C42.1797 43.033 42.171 43.1316 42.1438 43.2256C42.1166 43.3196 42.0714 43.4073 42.0108 43.4836C41.9501 43.5599 41.8752 43.6233 41.7904 43.6703C41.4615 43.7794 41.0789 43.452 40.9115 43.064C40.8106 42.7682 40.7719 42.4543 40.7979 42.1425C40.7841 41.9638 40.8149 41.7845 40.8876 41.6211Z" fill="#202020"/>
<path id="Vector_30" d="M40.8874 41.6211L41.0549 41.9182C41.1505 42.1 41.288 42.3547 41.3957 42.6032C41.6049 43.1064 41.7963 43.6703 41.7963 43.6703C41.4674 43.7794 41.0847 43.452 40.9173 43.064C40.8165 42.7682 40.7778 42.4543 40.8037 42.1425C40.7881 41.9643 40.8169 41.785 40.8874 41.6211Z" fill="#202020"/>
<path id="Vector_31" d="M40.1582 43.2277C40.6214 43.4985 40.9735 43.9287 41.1508 44.4402C41.1822 44.5337 41.1947 44.6326 41.1875 44.7311C41.1803 44.8295 41.1535 44.9255 41.1089 45.0133C41.0642 45.101 41.0025 45.1787 40.9275 45.2417C40.8525 45.3047 40.7658 45.3517 40.6724 45.3799C40.3316 45.4223 40.0147 45.0343 39.931 44.6039C39.8878 44.2941 39.9061 43.9788 39.9848 43.6763C40.0048 43.5144 40.0644 43.3602 40.1582 43.2277Z" fill="#202020"/>
<path id="Vector_32" d="M40.1582 43.2277C40.1582 43.2277 40.3376 43.7309 40.4811 44.2886C40.6246 44.8464 40.6724 45.4041 40.6724 45.4041C40.3316 45.4466 40.0147 45.0586 39.931 44.6281C39.8878 44.3184 39.9061 44.003 39.9848 43.7005C40.0008 43.5302 40.0606 43.3672 40.1582 43.2277Z" fill="#202020"/>
<path id="Vector_33" d="M39.1543 44.6707C39.5592 45.0296 39.8225 45.5248 39.8958 46.0651C39.9118 46.1627 39.9078 46.2626 39.8842 46.3586C39.8605 46.4545 39.8176 46.5446 39.7582 46.623C39.6987 46.7015 39.624 46.7667 39.5386 46.8147C39.4533 46.8626 39.3591 46.8922 39.262 46.9017C38.9152 46.9017 38.6641 46.4349 38.6641 45.9984C38.6846 45.5143 38.8563 45.0493 39.1543 44.6707Z" fill="#202020"/>
<path id="Vector_34" d="M39.1541 44.6705C39.1541 44.6705 39.2318 45.1919 39.2737 45.7679C39.2737 46.0528 39.2737 46.3256 39.2737 46.5378C39.2737 46.75 39.2737 46.9016 39.2737 46.9016C38.9269 46.9016 38.6758 46.4348 38.6758 45.9983C38.6929 45.5155 38.8603 45.0507 39.1541 44.6705Z" fill="#202020"/>
<path id="Vector_35" d="M37.9043 45.9256C38.2361 46.3522 38.4039 46.8865 38.3766 47.4291C38.3467 47.6451 38.248 47.8452 38.0956 47.999C38.0295 48.06 37.9499 48.104 37.8635 48.1272C37.7772 48.1505 37.6865 48.1522 37.5993 48.1324C37.2585 48.0414 37.1031 47.5625 37.1808 47.1381C37.2149 46.982 37.2692 46.8312 37.3422 46.6895C37.4023 46.5488 37.4764 46.4147 37.5635 46.2893C37.7189 46.0347 37.8684 45.8892 37.9043 45.9256Z" fill="#202020"/>
<path id="Vector_36" d="M37.9043 45.9256C37.9043 45.9256 37.9043 46.447 37.8146 47.0169C37.7861 47.2624 37.7402 47.5056 37.6771 47.7444L37.5993 48.096C37.2585 48.0051 37.1031 47.5262 37.1808 47.1018C37.2149 46.9457 37.2692 46.7948 37.3422 46.6531C37.4023 46.5124 37.4764 46.3783 37.5635 46.253C37.7189 46.0347 37.8684 45.8892 37.9043 45.9256Z" fill="#202020"/>
<path id="Vector_37" d="M36.4453 46.8713C36.6958 47.3578 36.7658 47.9193 36.6426 48.4537C36.4991 48.8841 36.0447 49.157 35.7518 48.9993C35.4588 48.8417 35.3691 48.3506 35.5245 47.9444C35.7139 47.4983 36.0358 47.1232 36.4453 46.8713Z" fill="#202020"/>
<path id="Vector_38" d="M36.4458 46.8713C36.4458 46.8713 36.4458 47.0108 36.374 47.2048C36.3023 47.3988 36.2485 47.6777 36.1648 47.9384C35.9914 48.4719 35.7522 48.9993 35.7522 48.9993C35.4353 48.8538 35.3696 48.3506 35.525 47.9444C35.7144 47.4983 36.0362 47.1232 36.4458 46.8713Z" fill="#202020"/>
<path id="Vector_39" d="M34.837 47.5625C34.9967 48.0856 34.9649 48.6497 34.7473 49.1509C34.7093 49.2418 34.6534 49.3238 34.5831 49.3921C34.5128 49.4604 34.4295 49.5134 34.3383 49.548C34.2471 49.5826 34.15 49.598 34.0527 49.5934C33.9555 49.5887 33.8602 49.5639 33.7727 49.5207C33.4917 49.3146 33.5156 48.8114 33.7368 48.4416C34.0034 48.0387 34.3883 47.7311 34.837 47.5625Z" fill="#202020"/>
<path id="Vector_40" d="M34.837 47.5625L34.7054 47.8778C34.6217 48.0596 34.5022 48.3082 34.3706 48.5568C34.1887 48.8888 33.9891 49.2106 33.7727 49.5207C33.4917 49.3146 33.5156 48.8114 33.7368 48.4416C34.0034 48.0387 34.3883 47.7311 34.837 47.5625Z" fill="#202020"/>
<path id="Vector_41" d="M42.8132 35.322L43.0404 36.3344C43.1002 36.6558 43.1361 37.0559 43.1959 37.5106C43.1959 37.741 43.1959 37.9835 43.1959 38.2442C43.1959 38.3715 43.1959 38.5049 43.1959 38.6382C43.1959 38.7716 43.1959 38.9111 43.1959 39.0505C43.1348 40.34 42.8494 41.6084 42.3528 42.7972C41.7942 44.1547 40.9821 45.3898 39.9612 46.4348C38.9299 47.4767 37.7124 48.31 36.3738 48.8902C35.202 49.3938 33.9548 49.693 32.6847 49.7753C31.7886 49.8248 30.8898 49.7699 30.0061 49.6116C29.6832 49.5449 29.4082 49.4964 29.2647 49.4479L29.0076 49.3813L28.9717 49.5146L29.2348 49.5813C29.4022 49.6298 29.6593 49.6783 29.9821 49.745C30.8772 49.9096 31.7886 49.9645 32.6966 49.9087C33.981 49.8274 35.2425 49.526 36.4276 49.0175C37.7859 48.4307 39.0216 47.5871 40.0688 46.5318C41.0922 45.4727 41.9043 44.2231 42.4605 42.8518C42.9603 41.6465 43.2496 40.3623 43.3155 39.0566C43.3155 38.9171 43.3155 38.7777 43.3155 38.6382V38.2381C43.3155 37.9774 43.3155 37.7349 43.3155 37.4985C43.2557 37.0377 43.2138 36.6376 43.154 36.2859C43.0105 35.6312 42.9268 35.2614 42.9268 35.2614L42.8132 35.322Z" fill="#797979"/>
<path id="Vector_42" d="M42.036 33.1394C41.9503 33.3489 41.9056 33.5734 41.9045 33.8002C41.8715 34.1705 41.9019 34.5438 41.9942 34.9036C42.0654 35.1266 42.206 35.3201 42.3948 35.4553C42.4684 35.5224 42.5565 35.571 42.652 35.5974C42.7476 35.6237 42.8478 35.6269 42.9448 35.6069C43.0449 35.5758 43.136 35.5204 43.21 35.4453C43.284 35.3703 43.3387 35.2779 43.3694 35.1765C43.437 34.9309 43.4265 34.6699 43.3395 34.4307C43.1951 34.0437 42.9414 33.7084 42.61 33.4668C42.4457 33.3149 42.2494 33.2029 42.036 33.1394Z" fill="#202020"/>
<path id="Vector_43" d="M42.0361 33.1394L42.2035 33.5153C42.2992 33.7457 42.4487 34.0367 42.5563 34.3459C42.6639 34.6551 42.7656 34.9521 42.8433 35.2068C42.8771 35.2994 42.9031 35.3947 42.921 35.4917V35.6069C43.0211 35.5758 43.1122 35.5204 43.1862 35.4453C43.2602 35.3703 43.3149 35.2779 43.3455 35.1765C43.4132 34.9309 43.4027 34.6699 43.3157 34.4307C43.1713 34.0437 42.9176 33.7084 42.5862 33.4668C42.4288 33.318 42.241 33.2062 42.0361 33.1394Z" fill="#202020"/>
<path id="Vector_44" d="M19.3509 34.7582C19.8754 34.9408 20.3268 35.2921 20.6364 35.7585C20.7467 35.9406 20.8028 36.1511 20.7979 36.3648C20.8022 36.4559 20.7861 36.5469 20.7509 36.6309C20.7157 36.7148 20.6623 36.7897 20.5946 36.8498C20.5077 36.9 20.4116 36.9317 20.3122 36.943C20.2128 36.9543 20.1121 36.9449 20.0164 36.9154C19.9207 36.8859 19.832 36.8369 19.7556 36.7714C19.6792 36.7059 19.6168 36.6253 19.5722 36.5345C19.3734 36.2001 19.2719 35.8155 19.2792 35.4251C19.2574 35.2001 19.2819 34.9731 19.3509 34.7582Z" fill="#202020"/>
<path id="Vector_45" d="M19.3514 34.7582C19.3514 34.7582 19.4171 34.9037 19.5247 35.1159C19.6324 35.3281 19.7818 35.607 19.9313 35.8676C20.0667 36.1097 20.2143 36.3444 20.3738 36.5709L20.595 36.868C20.5081 36.9182 20.412 36.9499 20.3126 36.9612C20.2132 36.9725 20.1125 36.9631 20.0168 36.9336C19.9211 36.9041 19.8324 36.8551 19.756 36.7896C19.6796 36.7241 19.6172 36.6435 19.5726 36.5527C19.3738 36.2182 19.2723 35.8337 19.2796 35.4433C19.2553 35.2123 19.2798 34.9788 19.3514 34.7582Z" fill="#202020"/>
<path id="Vector_46" d="M18.9085 37.1772C19.4496 37.2694 19.949 37.53 20.3375 37.9229C20.4837 38.0598 20.5794 38.2432 20.6088 38.4428C20.6382 38.6424 20.5994 38.8461 20.4989 39.0203C20.4216 39.0854 20.3321 39.1341 20.2358 39.1633C20.1394 39.1926 20.0383 39.2018 19.9384 39.1905C19.8384 39.1792 19.7418 39.1475 19.6542 39.0974C19.5666 39.0474 19.4899 38.9799 19.4287 38.899C19.1774 38.6068 19.0099 38.2503 18.9444 37.8684C18.877 37.6444 18.8647 37.4071 18.9085 37.1772Z" fill="#202020"/>
<path id="Vector_47" d="M18.909 37.1771C18.9777 37.2891 19.0536 37.3965 19.1362 37.4984C19.2856 37.6864 19.4829 37.9289 19.6803 38.1593C19.9367 38.4659 20.2144 38.7536 20.5113 39.0202C20.434 39.0853 20.3445 39.134 20.2482 39.1632C20.1519 39.1925 20.0507 39.2017 19.9508 39.1904C19.8509 39.1791 19.7542 39.1474 19.6666 39.0973C19.5791 39.0472 19.5023 38.9798 19.4411 38.8989C19.1898 38.6067 19.0223 38.2502 18.9568 37.8683C18.8855 37.6453 18.8691 37.408 18.909 37.1771Z" fill="#202020"/>
<path id="Vector_48" d="M18.9092 39.6386C19.461 39.6174 20.0047 39.7792 20.4578 40.0993C20.6279 40.2067 20.7564 40.3701 20.8217 40.5622C20.887 40.7543 20.8852 40.9633 20.8165 41.1542C20.7517 41.2313 20.6725 41.2945 20.5835 41.3403C20.4944 41.386 20.3972 41.4133 20.2976 41.4207C20.1981 41.428 20.098 41.4152 20.0034 41.383C19.9087 41.3508 19.8213 41.2998 19.7463 41.233C19.2799 40.8268 18.9811 40.2577 18.9092 39.6386Z" fill="#202020"/>
<path id="Vector_49" d="M18.9092 39.6387L19.1902 39.9115C19.3636 40.0691 19.6087 40.2692 19.8479 40.4571C20.0871 40.6451 20.3202 40.8269 20.4996 40.9482L20.8165 41.1543C20.7517 41.2314 20.6725 41.2946 20.5835 41.3404C20.4944 41.3861 20.3972 41.4135 20.2976 41.4208C20.1981 41.4281 20.098 41.4153 20.0034 41.3831C19.9087 41.3509 19.8213 41.2999 19.7463 41.2331C19.2799 40.8269 18.9811 40.2578 18.9092 39.6387Z" fill="#202020"/>
<path id="Vector_50" d="M19.3574 42.0516C19.8956 41.9309 20.4579 41.9904 20.9598 42.2213C21.1475 42.2933 21.3043 42.4299 21.4026 42.6072C21.501 42.7845 21.5348 42.9913 21.4979 43.1913C21.4485 43.2798 21.382 43.3572 21.3025 43.4191C21.2229 43.481 21.1319 43.526 21.0348 43.5514C20.9377 43.5769 20.8366 43.5823 20.7374 43.5673C20.6383 43.5523 20.5431 43.5172 20.4576 43.4642C20.1274 43.2723 19.8484 43.0018 19.6444 42.676C19.4994 42.4951 19.4008 42.2805 19.3574 42.0516Z" fill="#202020"/>
<path id="Vector_51" d="M19.3574 42.0515C19.6976 42.2788 20.0533 42.4814 20.4217 42.6578C20.6908 42.7972 20.9598 42.9306 21.1571 43.0215C21.3544 43.1125 21.4979 43.161 21.4979 43.161C21.4485 43.2494 21.382 43.3269 21.3025 43.3888C21.2229 43.4506 21.1319 43.4956 21.0348 43.5211C20.9377 43.5465 20.8366 43.5519 20.7374 43.5369C20.6383 43.5219 20.5431 43.4869 20.4576 43.4338C20.1274 43.2419 19.8484 42.9714 19.6444 42.6457C19.5037 42.4734 19.4054 42.2698 19.3574 42.0515Z" fill="#202020"/>
<path id="Vector_52" d="M20.2305 44.3433C20.7365 44.1244 21.2994 44.0797 21.8329 44.216C22.0314 44.248 22.2119 44.3514 22.3414 44.5072C22.471 44.6631 22.5409 44.861 22.5384 45.0648C22.4906 45.4164 22.0421 45.671 21.5698 45.5316C21.2099 45.4089 20.8841 45.2011 20.6191 44.9253C20.4469 44.7644 20.3138 44.5652 20.2305 44.3433Z" fill="#202020"/>
<path id="Vector_53" d="M20.2305 44.3433L20.5892 44.4948C20.7985 44.5858 21.0974 44.6828 21.3904 44.7737L22.1796 44.992C22.2977 45.0235 22.4175 45.0477 22.5384 45.0647C22.4906 45.4164 22.0421 45.671 21.5698 45.5315C21.2099 45.4088 20.8841 45.201 20.6191 44.9253C20.4469 44.7644 20.3138 44.5652 20.2305 44.3433Z" fill="#202020"/>
<path id="Vector_54" d="M21.5332 46.4348C21.9897 46.126 22.5342 45.9789 23.0818 46.0165C23.5541 46.059 23.9368 46.35 23.9308 46.7198C23.9248 47.0896 23.5422 47.3927 23.0698 47.326C22.6901 47.2702 22.3291 47.1226 22.0175 46.8956C21.8268 46.777 21.6621 46.6202 21.5332 46.4348Z" fill="#202020"/>
<path id="Vector_55" d="M21.5332 46.4348L21.9159 46.5197C22.19 46.5785 22.4676 46.619 22.747 46.6409C23.3449 46.7076 23.9428 46.7198 23.9428 46.7198C23.9428 47.0653 23.5541 47.3927 23.0818 47.326C22.702 47.2702 22.3411 47.1226 22.0295 46.8956C21.8345 46.7783 21.6655 46.6214 21.5332 46.4348Z" fill="#202020"/>
<path id="Vector_56" d="M23.1357 48.2597C23.5266 47.8674 24.0362 47.6197 24.5827 47.5565C25.0431 47.5201 25.4855 47.7202 25.5453 48.0839C25.5502 48.1849 25.5347 48.2858 25.5 48.3805C25.4652 48.4752 25.4118 48.5618 25.343 48.6349C25.2742 48.708 25.1915 48.7662 25.0999 48.806C25.0082 48.8457 24.9096 48.8661 24.8099 48.866C24.4265 48.8875 24.0439 48.8103 23.6978 48.6417C23.4898 48.5487 23.2996 48.4194 23.1357 48.2597Z" fill="#202020"/>
<path id="Vector_57" d="M23.1357 48.2598H23.5304C23.7635 48.2598 24.0565 48.2598 24.3674 48.2294C24.9653 48.1749 25.5632 48.0779 25.5632 48.0779C25.5681 48.1788 25.5527 48.2797 25.5179 48.3744C25.4831 48.4692 25.4297 48.5557 25.361 48.6288C25.2922 48.702 25.2094 48.7602 25.1178 48.7999C25.0261 48.8397 24.9275 48.8601 24.8278 48.86C24.4444 48.8814 24.0618 48.8043 23.7157 48.6356C23.5019 48.5463 23.3055 48.4191 23.1357 48.2598Z" fill="#202020"/>
<path id="Vector_58" d="M25.0732 49.7451C25.3857 49.2854 25.84 48.9441 26.3647 48.775C26.5517 48.7043 26.7569 48.7006 26.9462 48.7645C27.1355 48.8285 27.2974 48.9563 27.4051 49.1267C27.4268 49.2264 27.4284 49.3294 27.4099 49.4298C27.3913 49.5301 27.353 49.6256 27.2972 49.7105C27.2413 49.7954 27.1691 49.868 27.0849 49.924C27.0007 49.9799 26.9063 50.0181 26.8072 50.0361C26.2135 50.1574 25.5967 50.0539 25.0732 49.7451Z" fill="#202020"/>
<path id="Vector_59" d="M25.0732 49.745C25.0732 49.745 25.6711 49.6359 26.2691 49.4903C26.6517 49.3889 27.0288 49.2675 27.3991 49.1266C27.4208 49.2263 27.4224 49.3293 27.4039 49.4297C27.3854 49.53 27.347 49.6255 27.2912 49.7104C27.2353 49.7953 27.1632 49.868 27.079 49.9239C26.9948 49.9798 26.9003 50.018 26.8012 50.036C26.2095 50.1558 25.595 50.0523 25.0732 49.745Z" fill="#202020"/>
<path id="Vector_60" d="M27.2314 50.8484C27.4581 50.3335 27.8444 49.9078 28.3316 49.6359C28.5007 49.5272 28.7018 49.4817 28.9004 49.5071C29.099 49.5326 29.2827 49.6274 29.4198 49.7753C29.4598 49.8683 29.481 49.9684 29.4821 50.0698C29.4833 50.1712 29.4643 50.2718 29.4264 50.3657C29.3885 50.4595 29.3324 50.5447 29.2614 50.6162C29.1904 50.6876 29.106 50.7439 29.0132 50.7817C28.4483 51.0287 27.8127 51.0525 27.2314 50.8484Z" fill="#202020"/>
<path id="Vector_61" d="M27.2314 50.8484C27.6201 50.7114 28.0013 50.5536 28.3735 50.3756C28.7328 50.1929 29.0821 49.9905 29.4198 49.7693C29.4598 49.8622 29.481 49.9624 29.4821 50.0638C29.4833 50.1652 29.4643 50.2658 29.4264 50.3597C29.3885 50.4535 29.3324 50.5387 29.2614 50.6102C29.1904 50.6816 29.106 50.7379 29.0132 50.7757C28.4491 51.0247 27.8135 51.0507 27.2314 50.8484Z" fill="#202020"/>
<path id="Vector_62" d="M22.7713 36.3951C22.24 36.279 21.6853 36.3631 21.2107 36.6316C20.858 36.8923 20.6965 37.3894 20.9357 37.6562C21.0938 37.7714 21.2865 37.8272 21.4807 37.8139C21.675 37.8006 21.8586 37.7191 22 37.5834C22.2517 37.3931 22.4564 37.1461 22.5979 36.8619C22.6845 36.719 22.7434 36.5605 22.7713 36.3951Z" fill="#202020"/>
<path id="Vector_63" d="M22.7711 36.395C22.4462 36.5581 22.1344 36.7466 21.8384 36.9589C21.6112 37.1165 21.384 37.2862 21.2106 37.4257C21.0372 37.5651 20.9355 37.6561 20.9355 37.6561C21.0936 37.7713 21.2863 37.8271 21.4806 37.8138C21.6748 37.8005 21.8585 37.719 21.9998 37.5833C22.2515 37.393 22.4562 37.146 22.5977 36.8618C22.6844 36.7189 22.7432 36.5604 22.7711 36.395Z" fill="#202020"/>
<path id="Vector_64" d="M22.5623 38.1472C22.0193 38.1338 21.4901 38.3213 21.0735 38.6746C20.9271 38.8046 20.8359 38.9871 20.8192 39.1837C20.8025 39.3804 20.8615 39.576 20.9838 39.7295C21.1615 39.8138 21.3625 39.8327 21.5524 39.7829C21.7423 39.7331 21.9092 39.6178 22.0242 39.4567C22.2328 39.2237 22.3826 38.9428 22.4607 38.6382C22.5337 38.4854 22.5686 38.3168 22.5623 38.1472Z" fill="#202020"/>
<path id="Vector_65" d="M22.5619 38.1472L22.2988 38.3594C22.1061 38.5207 21.9225 38.6927 21.7487 38.8747C21.3661 39.2688 20.9834 39.7296 20.9834 39.7296C21.161 39.8139 21.3621 39.8328 21.552 39.783C21.7419 39.7332 21.9087 39.6178 22.0238 39.4568C22.2324 39.2237 22.3821 38.9429 22.4602 38.6383C22.5333 38.4855 22.5682 38.3169 22.5619 38.1472Z" fill="#202020"/>
<path id="Vector_66" d="M22.6757 39.9054C22.1399 39.9984 21.6544 40.2822 21.3065 40.7057C21.1851 40.8598 21.1284 41.0562 21.1485 41.2524C21.1686 41.4486 21.264 41.629 21.4141 41.7545C21.731 41.9182 22.1495 41.6757 22.3887 41.2998C22.5463 41.0301 22.6404 40.7272 22.6637 40.4147C22.7094 40.2486 22.7135 40.0735 22.6757 39.9054Z" fill="#202020"/>
<path id="Vector_67" d="M22.6758 39.9054L22.4605 40.1721C22.2971 40.3647 22.1453 40.5672 22.0061 40.7784C21.7012 41.2331 21.4082 41.7545 21.4082 41.7545C21.7251 41.9182 22.1436 41.6757 22.3828 41.2998C22.5404 41.0301 22.6345 40.7272 22.6578 40.4147C22.7055 40.2491 22.7117 40.074 22.6758 39.9054Z" fill="#202020"/>
<path id="Vector_68" d="M23.1062 41.6211C22.5991 41.8122 22.1753 42.1795 21.9104 42.6578C21.8634 42.744 21.8339 42.8387 21.8235 42.9366C21.8131 43.0345 21.8221 43.1335 21.85 43.2277C21.8778 43.322 21.924 43.4098 21.9857 43.4857C22.0474 43.5617 22.1234 43.6245 22.2093 43.6703C22.5322 43.7794 22.9208 43.452 23.0823 43.064C23.1831 42.7682 23.2218 42.4543 23.1959 42.1425C23.2096 41.9638 23.1788 41.7845 23.1062 41.6211Z" fill="#202020"/>
<path id="Vector_69" d="M23.106 41.6211L22.9385 41.9182C22.8489 42.1 22.7054 42.3547 22.6037 42.6032C22.3885 43.1064 22.2031 43.6703 22.2031 43.6703C22.526 43.7794 22.9146 43.452 23.0761 43.064C23.1769 42.7682 23.2156 42.4543 23.1897 42.1425C23.2053 41.9643 23.1765 41.785 23.106 41.6211Z" fill="#202020"/>
<path id="Vector_70" d="M23.8351 43.2277C23.3742 43.4996 23.0243 43.9297 22.8486 44.4402C22.8162 44.5332 22.8028 44.6319 22.8092 44.7304C22.8156 44.8288 22.8417 44.9249 22.8859 45.0128C22.93 45.1007 22.9914 45.1786 23.0662 45.2417C23.141 45.3048 23.2276 45.3518 23.3209 45.3799C23.6617 45.4223 23.9786 45.0343 24.0683 44.6039C24.1056 44.2939 24.0873 43.9797 24.0145 43.6763C23.9911 43.5143 23.9296 43.3604 23.8351 43.2277Z" fill="#202020"/>
<path id="Vector_71" d="M23.8355 43.2277C23.8355 43.2277 23.6561 43.7309 23.5126 44.2886C23.3691 44.8464 23.3213 45.4041 23.3213 45.4041C23.6621 45.4466 23.979 45.0586 24.0687 44.6281C24.1059 44.3182 24.0877 44.0039 24.0149 43.7005C23.9953 43.5301 23.9336 43.3675 23.8355 43.2277Z" fill="#202020"/>
<path id="Vector_72" d="M24.8398 44.6705C24.435 45.0295 24.1717 45.5247 24.0984 46.0649C24.0824 46.163 24.0865 46.2634 24.1106 46.3597C24.1346 46.4561 24.178 46.5464 24.2381 46.625C24.2982 46.7035 24.3736 46.7686 24.4596 46.8162C24.5457 46.8638 24.6405 46.8929 24.7382 46.9016C25.079 46.9016 25.3361 46.4348 25.3361 45.9983C25.3139 45.5135 25.1401 45.0485 24.8398 44.6705Z" fill="#202020"/>
<path id="Vector_73" d="M24.8402 44.6705C24.8402 44.6705 24.7624 45.1919 24.7266 45.7679C24.7266 46.0528 24.7266 46.3256 24.7266 46.5378C24.7266 46.75 24.7266 46.9016 24.7266 46.9016C25.0674 46.9016 25.3245 46.4348 25.3245 45.9983C25.3057 45.5149 25.1361 45.05 24.8402 44.6705Z" fill="#202020"/>
<path id="Vector_74" d="M26.0892 45.9256C25.7576 46.352 25.5916 46.8869 25.6229 47.4291C25.6485 47.6451 25.7454 47.8459 25.8979 47.999C25.9664 48.0581 26.0471 48.1008 26.134 48.1238C26.221 48.1469 26.3119 48.1499 26.4002 48.1324C26.735 48.0414 26.8904 47.5625 26.8127 47.1381C26.7815 46.9812 26.7271 46.8299 26.6513 46.6895C26.5912 46.5488 26.5171 46.4147 26.43 46.2893C26.2806 46.0347 26.1251 45.8892 26.0892 45.9256Z" fill="#202020"/>
<path id="Vector_75" d="M26.0898 45.9256C26.0898 45.9256 26.0898 46.447 26.1855 47.0169C26.2149 47.2619 26.2588 47.5048 26.317 47.7444C26.3649 47.9566 26.4008 48.096 26.4008 48.096C26.7356 48.0051 26.891 47.5262 26.8133 47.1018C26.7821 46.9448 26.7277 46.7936 26.6519 46.6531C26.5918 46.5124 26.5177 46.3783 26.4307 46.253C26.2812 46.0347 26.1257 45.8892 26.0898 45.9256Z" fill="#202020"/>
<path id="Vector_76" d="M27.5541 46.8713C27.3011 47.3569 27.2289 47.9186 27.3508 48.4537C27.4943 48.8841 27.9487 49.157 28.2417 48.9993C28.5347 48.8417 28.6244 48.3506 28.4749 47.9444C28.2835 47.4996 27.9621 47.125 27.5541 46.8713Z" fill="#202020"/>
<path id="Vector_77" d="M27.5547 46.8713C27.5714 46.9839 27.5954 47.0953 27.6264 47.2048C27.6743 47.3988 27.746 47.6777 27.8357 47.9384C27.9525 48.2991 28.0882 48.6533 28.2423 48.9993C28.5592 48.8538 28.6249 48.3506 28.4755 47.9444C28.2841 47.4996 27.9627 47.125 27.5547 46.8713Z" fill="#202020"/>
<path id="Vector_78" d="M29.157 47.5625C28.9972 48.0856 29.0291 48.6497 29.2467 49.1509C29.2853 49.242 29.3418 49.3242 29.4127 49.3925C29.4835 49.4608 29.5673 49.5139 29.659 49.5484C29.7506 49.583 29.8482 49.5984 29.9459 49.5936C30.0436 49.5888 30.1393 49.564 30.2272 49.5207C30.5082 49.3146 30.4783 48.8114 30.2272 48.4416C29.9685 48.0436 29.5946 47.7365 29.157 47.5625Z" fill="#202020"/>
<path id="Vector_79" d="M29.1572 47.5625L29.2888 47.8778C29.3725 48.0596 29.4921 48.3082 29.6296 48.5568C29.8115 48.8888 30.0111 49.2106 30.2275 49.5207C30.5085 49.3146 30.4786 48.8114 30.2275 48.4416C29.9687 48.0436 29.5949 47.7365 29.1572 47.5625Z" fill="#202020"/>
<path id="Vector_80" d="M21.1805 35.322L20.9533 36.3344C20.8935 36.6558 20.8576 37.0559 20.7978 37.5106C20.7978 37.741 20.7978 37.9835 20.7978 38.2442V38.6382C20.7978 38.7716 20.7978 38.9111 20.8277 39.0505C20.8917 40.3396 21.177 41.6075 21.6707 42.7972C22.2316 44.1534 23.0435 45.3882 24.0624 46.4348C25.0936 47.4767 26.3111 48.31 27.6498 48.8902C28.8216 49.3938 30.0688 49.693 31.3389 49.7753C32.237 49.8246 33.1377 49.7697 34.0235 49.6116C34.3404 49.5449 34.5915 49.4964 34.7589 49.4479L35.016 49.3813L35.0519 49.5146L34.7888 49.5813C34.6214 49.6298 34.3703 49.6783 34.0474 49.745C33.1523 49.9092 32.241 49.9641 31.3329 49.9087C30.0467 49.8268 28.7834 49.5255 27.596 49.0175C26.226 48.4361 24.9795 47.5921 23.9249 46.5318C22.9015 45.4726 22.0894 44.2231 21.5332 42.8518C21.0351 41.6463 20.7478 40.362 20.6842 39.0566C20.6842 38.9171 20.6842 38.7777 20.6543 38.6382V38.2381C20.6543 37.9774 20.6543 37.7349 20.6543 37.4985C20.7201 37.0377 20.7559 36.6376 20.8157 36.2859L21.0489 35.2614L21.1805 35.322Z" fill="#797979"/>
<path id="Vector_81" d="M21.9645 33.1394C22.0472 33.3499 22.0917 33.5737 22.0961 33.8002C22.126 34.1705 22.0957 34.5433 22.0064 34.9036C21.9327 35.127 21.7902 35.3204 21.5998 35.4553C21.5261 35.5224 21.438 35.571 21.3425 35.5974C21.247 35.6237 21.1467 35.6269 21.0497 35.6069C20.9489 35.5785 20.8572 35.5239 20.7838 35.4483C20.7103 35.3728 20.6577 35.2791 20.6312 35.1765C20.5539 34.9341 20.5539 34.6731 20.6312 34.4307C20.7756 34.042 21.0318 33.7061 21.3666 33.4668C21.5371 33.3105 21.7422 33.1982 21.9645 33.1394Z" fill="#202020"/>
<path id="Vector_82" d="M21.964 33.1394L21.7906 33.5153C21.701 33.7457 21.5455 34.0367 21.4379 34.3459C21.3303 34.6551 21.2286 34.9521 21.1509 35.2068C21.1199 35.3003 21.094 35.3954 21.0732 35.4917V35.6069C20.9724 35.5785 20.8807 35.5239 20.8072 35.4483C20.7338 35.3728 20.6811 35.2791 20.6546 35.1765C20.5774 34.9341 20.5774 34.6731 20.6546 34.4307C20.799 34.042 21.0552 33.7061 21.39 33.4668C21.5536 33.3138 21.7502 33.2017 21.964 33.1394Z" fill="#202020"/>
</g>
</svg>
