<svg width="65" height="65" viewBox="0 0 65 65" fill="none" xmlns="http://www.w3.org/2000/svg">
<g id="Group 34379">
<path id="Vector 1" d="M24.5 44V29H21V44H24.5Z" fill="#BD3939"/>
<circle id="Ellipse 102" cx="32.5" cy="32.5" r="32" stroke="url(#paint0_linear_228_2526)"/>
<circle id="Ellipse 99" cx="32.5" cy="32.5" r="27.5" fill="#D9D9D9"/>
<circle id="Ellipse 109" cx="32.501" cy="32.5" r="9.25" fill="#352A33"/>
<path id="Vector" d="M44.3272 32.5L45.8194 29.9211C45.9987 29.6108 46.0475 29.242 45.955 28.8958C45.8625 28.5495 45.6363 28.2542 45.3261 28.0747L42.7445 26.5826V23.609C42.7445 23.2505 42.6021 22.9067 42.3486 22.6533C42.0951 22.3998 41.7513 22.2574 41.3928 22.2574H38.4206L36.9298 19.6771C36.7497 19.3675 36.455 19.1412 36.1094 19.0473C35.9379 19.0008 35.759 18.9888 35.5829 19.012C35.4068 19.0352 35.237 19.0931 35.0835 19.1824L32.5019 20.6746L29.9203 19.1811C29.6098 19.0019 29.2409 18.9533 28.8947 19.0461C28.5484 19.1388 28.2532 19.3653 28.074 19.6758L26.5818 22.2574H23.6096C23.2511 22.2574 22.9073 22.3998 22.6538 22.6533C22.4003 22.9067 22.2579 23.2505 22.2579 23.609V26.5812L19.6763 28.0734C19.5223 28.162 19.3873 28.2802 19.279 28.4211C19.1708 28.5621 19.0915 28.723 19.0457 28.8947C18.9998 29.0664 18.9883 29.2454 19.0119 29.4216C19.0355 29.5977 19.0936 29.7675 19.183 29.9211L20.6752 32.5L19.183 35.0789C19.0046 35.3894 18.9562 35.7579 19.0483 36.104C19.1405 36.4502 19.3657 36.7458 19.675 36.9265L22.2566 38.4187V41.3909C22.2566 41.7494 22.399 42.0932 22.6525 42.3467C22.9059 42.6001 23.2497 42.7425 23.6082 42.7425H26.5818L28.074 45.3241C28.1936 45.5287 28.3645 45.6986 28.5697 45.8171C28.7749 45.9356 29.0075 45.9986 29.2445 46C29.4796 46 29.7135 45.9378 29.9216 45.8175L32.5005 44.3253L35.0821 45.8175C35.3925 45.9965 35.7612 46.045 36.1073 45.9525C36.4534 45.8601 36.7487 45.6341 36.9284 45.3241L38.4193 42.7425H41.3915C41.75 42.7425 42.0938 42.6001 42.3472 42.3467C42.6007 42.0932 42.7431 41.7494 42.7431 41.3909V38.4187L45.3247 36.9265C45.4785 36.8377 45.6132 36.7194 45.7213 36.5784C45.8293 36.4374 45.9085 36.2765 45.9543 36.1049C46.0001 35.9333 46.0117 35.7544 45.9883 35.5783C45.9649 35.4023 45.9071 35.2325 45.818 35.0789L44.3272 32.5ZM29.1215 25.7283C29.6594 25.7285 30.1751 25.9424 30.5554 26.3228C30.9356 26.7033 31.1491 27.2192 31.1489 27.7571C31.1487 28.295 30.9349 28.8108 30.5544 29.191C30.1739 29.5712 29.658 29.7847 29.1201 29.7846C28.5822 29.7844 28.0664 29.5705 27.6862 29.1901C27.306 28.8096 27.0925 28.2937 27.0927 27.7558C27.0929 27.2179 27.3067 26.7021 27.6872 26.3219C28.0677 25.9417 28.5836 25.7282 29.1215 25.7283ZM29.527 38.7039L27.3644 37.0833L35.4741 26.2703L37.6367 27.8909L29.527 38.7039ZM35.8796 39.2445C35.6132 39.2445 35.3495 39.1919 35.1035 39.0899C34.8575 38.9879 34.6339 38.8384 34.4457 38.6501C34.2574 38.4617 34.1081 38.238 34.0063 37.9919C33.9044 37.7458 33.8521 37.4821 33.8521 37.2158C33.8522 36.9494 33.9048 36.6857 34.0068 36.4397C34.1088 36.1937 34.2583 35.9701 34.4466 35.7819C34.635 35.5936 34.8587 35.4443 35.1048 35.3425C35.3508 35.2406 35.6146 35.1882 35.8809 35.1883C36.4188 35.1885 36.9346 35.4024 37.3148 35.7828C37.695 36.1633 37.9085 36.6792 37.9084 37.2171C37.9082 37.755 37.6943 38.2708 37.3139 38.651C36.9334 39.0312 36.4175 39.2447 35.8796 39.2445Z" fill="#007AFF"/>
</g>
<defs>
<linearGradient id="paint0_linear_228_2526" x1="32.5" y1="0" x2="105" y2="101.5" gradientUnits="userSpaceOnUse">
<stop stop-color="#007AFF"/>
<stop offset="0.536458" stop-color="#007AFF" stop-opacity="0"/>
</linearGradient>
</defs>
</svg>
