<svg width="65" height="65" viewBox="0 0 65 65" fill="none" xmlns="http://www.w3.org/2000/svg">
<g id="Group 34375">
<g id="Group 34329">
<g id="Group 34320">
<circle id="Ellipse 102" cx="32.5" cy="32.5" r="32" stroke="url(#paint0_linear_228_2522)"/>
<circle id="Ellipse 99" cx="32.5" cy="32.5" r="27.5" fill="#D9D9D9"/>
</g>
</g>
<path id="Vector" d="M26.127 28C26.9558 28 27.7506 27.6708 28.3367 27.0847C28.9227 26.4987 29.252 25.7038 29.252 24.875C29.252 24.0462 28.9227 23.2513 28.3367 22.6653C27.7506 22.0792 26.9558 21.75 26.127 21.75C25.2982 21.75 24.5033 22.0792 23.9172 22.6653C23.3312 23.2513 23.002 24.0462 23.002 24.875C23.002 25.7038 23.3312 26.4987 23.9172 27.0847C24.5033 27.6708 25.2982 28 26.127 28ZM40.502 28C41.3308 28 42.1256 27.6708 42.7117 27.0847C43.2977 26.4987 43.627 25.7038 43.627 24.875C43.627 24.0462 43.2977 23.2513 42.7117 22.6653C42.1256 22.0792 41.3308 21.75 40.502 21.75C39.6732 21.75 38.8783 22.0792 38.2922 22.6653C37.7062 23.2513 37.377 24.0462 37.377 24.875C37.377 25.7038 37.7062 26.4987 38.2922 27.0847C38.8783 27.6708 39.6732 28 40.502 28ZM20.502 33.418C20.502 33.875 20.877 34.25 21.334 34.25H29.6973C28.6582 33.332 28.0059 31.9922 28.0059 30.5C28.0059 30.2031 28.0332 29.9141 28.0801 29.6289C27.5488 29.3828 26.959 29.25 26.3379 29.25H24.6699C22.3691 29.25 20.502 31.1172 20.502 33.418ZM33.002 34.25C33.9395 34.25 34.7949 33.9062 35.4512 33.3398C35.5488 33.1953 35.6543 33.0547 35.7637 32.9219C35.8691 32.793 35.9863 32.6836 36.1152 32.5977C36.5176 31.9961 36.752 31.2773 36.752 30.5C36.752 28.4297 35.0723 26.75 33.002 26.75C30.9316 26.75 29.252 28.4297 29.252 30.5C29.252 32.5703 30.9316 34.25 33.002 34.25ZM35.5566 36.6016C35.1543 36.3711 34.8496 35.9688 34.7441 35.5H30.709C27.834 35.5 25.502 37.832 25.502 40.707C25.502 41.2812 25.9668 41.75 26.5449 41.75H38.2832C38.2012 41.5469 38.1582 41.3242 38.1582 41.1094V40.9922C38.1074 40.9648 38.0527 40.9336 38.002 40.9023L37.9004 40.9609C37.2441 41.3398 36.3184 41.2734 35.7637 40.582C35.5879 40.3633 35.4277 40.1328 35.2793 39.8945L35.2754 39.8867L35.2715 39.8789L35.1777 39.7188L35.1738 39.7109L35.1699 39.7031C35.0371 39.4609 34.9199 39.2109 34.8184 38.9492C34.498 38.1211 34.9043 37.2852 35.5605 36.9062L35.666 36.8477V36.668L35.5605 36.6094L35.5566 36.6016ZM41.334 29.25H39.6699C39.0488 29.25 38.459 29.3867 37.9277 29.6289C37.9785 29.9102 38.002 30.2031 38.002 30.5C38.002 31.1797 37.8652 31.8242 37.623 32.4141C37.7207 32.4492 37.8145 32.4922 37.9004 32.543L38.002 32.6016C38.0527 32.5703 38.1035 32.5391 38.1582 32.5117V32.3945C38.1582 31.6367 38.6777 30.8672 39.5566 30.7305C39.8652 30.6836 40.1816 30.6562 40.502 30.6562C40.8223 30.6562 41.1387 30.6797 41.4473 30.7305C42.3262 30.8672 42.8457 31.6367 42.8457 32.3945V32.5117C42.8965 32.5391 42.9512 32.5703 43.002 32.6016L43.1035 32.543C43.7598 32.1641 44.6855 32.2305 45.2402 32.9219C45.3301 33.0312 45.416 33.1484 45.498 33.2617C45.416 31.0313 43.584 29.25 41.334 29.25ZM44.9004 35.6523C45.1465 35.5117 45.2715 35.2188 45.166 34.9492C45.084 34.7344 44.9863 34.5273 44.877 34.3281L44.7871 34.1719C44.666 33.9727 44.5332 33.7852 44.3887 33.6055C44.209 33.3828 43.8926 33.3438 43.6465 33.4883L42.9395 33.8984C42.5918 33.6016 42.1934 33.3672 41.752 33.2109V32.3906C41.752 32.1055 41.5605 31.8516 41.2793 31.8086C41.0254 31.7695 40.7676 31.75 40.502 31.75C40.2363 31.75 39.9785 31.7695 39.7246 31.8086C39.4434 31.8516 39.252 32.1055 39.252 32.3906V33.2109C38.8145 33.3672 38.4121 33.6016 38.0645 33.8984L37.3535 33.4883C37.1074 33.3477 36.791 33.3867 36.6113 33.6055C36.4668 33.7852 36.334 33.9766 36.2129 34.1758L36.123 34.3281C36.0137 34.5273 35.916 34.7344 35.834 34.9492C35.7324 35.2148 35.8535 35.5078 36.0996 35.6484L36.8105 36.0586C36.7715 36.2812 36.748 36.5117 36.748 36.7461C36.748 36.9805 36.7715 37.2109 36.8105 37.4297L36.0996 37.8398C35.8535 37.9805 35.7285 38.2734 35.834 38.5391C35.916 38.7539 36.0137 38.957 36.123 39.1562L36.2168 39.3164C36.334 39.5156 36.4668 39.7031 36.6113 39.8828C36.791 40.1055 37.1074 40.1445 37.3535 40L38.0645 39.6016C38.4121 39.8984 38.8145 40.1328 39.252 40.2891V41.1094C39.252 41.3945 39.4434 41.6484 39.7246 41.6914C39.9785 41.7305 40.2363 41.75 40.502 41.75C40.7676 41.75 41.0254 41.7305 41.2793 41.6914C41.5605 41.6484 41.752 41.3945 41.752 41.1094V40.2891C42.1895 40.1328 42.5918 39.8984 42.9395 39.6016L43.6504 40.0117C43.8965 40.1523 44.2129 40.1133 44.3926 39.8945C44.5371 39.7148 44.6699 39.5273 44.7871 39.3281L44.8809 39.1641C44.9902 38.9648 45.0879 38.7617 45.1699 38.5469C45.2715 38.2812 45.1504 37.9883 44.9043 37.8477L44.1934 37.4375C44.2324 37.2148 44.2559 36.9844 44.2559 36.7539C44.2559 36.5234 44.2324 36.2891 44.1934 36.0664L44.9043 35.6562L44.9004 35.6523ZM38.9395 36.75C38.9395 36.3356 39.1041 35.9382 39.3971 35.6451C39.6901 35.3521 40.0876 35.1875 40.502 35.1875C40.9164 35.1875 41.3138 35.3521 41.6068 35.6451C41.8998 35.9382 42.0645 36.3356 42.0645 36.75C42.0645 37.1644 41.8998 37.5618 41.6068 37.8549C41.3138 38.1479 40.9164 38.3125 40.502 38.3125C40.0876 38.3125 39.6901 38.1479 39.3971 37.8549C39.1041 37.5618 38.9395 37.1644 38.9395 36.75Z" fill="#007AFF"/>
</g>
<defs>
<linearGradient id="paint0_linear_228_2522" x1="32.5" y1="0" x2="105" y2="101.5" gradientUnits="userSpaceOnUse">
<stop stop-color="#007AFF"/>
<stop offset="0.557292" stop-color="#007AFF" stop-opacity="0"/>
</linearGradient>
</defs>
</svg>
