<svg width="20" height="20" viewBox="0 0 20 20" fill="none" xmlns="http://www.w3.org/2000/svg">
<g id="bi:youtube" clip-path="url(#clip0_140_15)">
<g id="Group">
<path id="Vector" d="M10.0596 2.97876H10.1637C11.1254 2.98227 15.9985 3.01737 17.3124 3.37071C17.7096 3.47855 18.0716 3.68874 18.3621 3.98029C18.6526 4.27184 18.8615 4.63453 18.9679 5.03211C19.0861 5.47671 19.1692 6.06522 19.2253 6.67245L19.237 6.79413L19.2628 7.09833L19.2721 7.22001C19.3482 8.28939 19.3576 9.29091 19.3587 9.5097V9.59745C19.3576 9.82443 19.347 10.8938 19.2628 12.0076L19.2534 12.1305L19.2429 12.2522C19.1844 12.9214 19.0978 13.586 18.9679 14.075C18.8618 14.4728 18.653 14.8356 18.3625 15.1272C18.0719 15.4188 17.7098 15.6289 17.3124 15.7364C15.9552 16.1015 10.7967 16.1272 10.0818 16.1284H9.91565C9.55412 16.1284 8.05886 16.1214 6.49106 16.0675L6.29216 16.0605L6.19037 16.0558L5.9903 16.0477L5.79023 16.0395C4.49153 15.9821 3.25484 15.8897 2.68505 15.7353C2.28783 15.6279 1.9258 15.4179 1.63524 15.1266C1.34468 14.8352 1.13579 14.4726 1.0295 14.075C0.899633 13.5871 0.813053 12.9214 0.754553 12.2522L0.745193 12.1293L0.735833 12.0076C0.67809 11.2149 0.646093 10.4204 0.639893 9.62553L0.639893 9.48162C0.642233 9.23007 0.651593 8.36076 0.714773 7.40136L0.722963 7.28085L0.726473 7.22001L0.735833 7.09833L0.761573 6.79413L0.773273 6.67245C0.829433 6.06522 0.912503 5.47554 1.03067 5.03211C1.13678 4.63437 1.34559 4.27151 1.63616 3.97991C1.92673 3.68831 2.28886 3.47822 2.68622 3.37071C3.25601 3.21861 4.4927 3.12501 5.7914 3.06651L5.9903 3.05832L6.19154 3.0513L6.29216 3.04779L6.49223 3.0396C7.60573 3.00377 8.71969 2.98388 9.83375 2.97993H10.0596V2.97876ZM8.12789 6.73446V12.3715L12.9916 9.55416L8.12789 6.73446Z" fill="#007AFF"/>
</g>
</g>
<defs>
<clipPath id="clip0_140_15">
<rect width="18.72" height="18.72" fill="white" transform="translate(0.639893 0.639893)"/>
</clipPath>
</defs>
</svg>
