<svg width="39" height="23" viewBox="0 0 39 23" fill="none" xmlns="http://www.w3.org/2000/svg">
<path id="Vector" d="M26.4895 0H21.255C20.7675 0 20.2983 0.179622 19.9388 0.502943L13.9486 5.89161C13.9425 5.8976 13.9364 5.90958 13.9303 5.91556C12.9188 6.8496 12.937 8.34046 13.8023 9.26851C14.5763 10.1008 16.2033 10.3223 17.2209 9.43017C17.227 9.42419 17.2392 9.42419 17.2453 9.4182L22.1142 5.03541C22.5103 4.68216 23.1319 4.70611 23.4914 5.09529C23.857 5.48447 23.8266 6.0892 23.4305 6.44844L21.84 7.87943L30.7125 14.9566C30.8892 15.1003 31.0477 15.2559 31.1939 15.4176V3.83194L27.8667 0.562817C27.5072 0.203572 27.0075 0 26.4895 0ZM33.15 3.84392V17.2497C33.15 18.3095 34.0214 19.1657 35.1 19.1657H39V3.84392H33.15ZM36.075 17.2497C35.5387 17.2497 35.1 16.8186 35.1 16.2917C35.1 15.7649 35.5387 15.3338 36.075 15.3338C36.6113 15.3338 37.05 15.7649 37.05 16.2917C37.05 16.8186 36.6113 17.2497 36.075 17.2497ZM0 19.1597H3.9C4.97859 19.1597 5.85 18.3035 5.85 17.2437V3.84392H0V19.1597ZM2.925 15.3338C3.46125 15.3338 3.9 15.7649 3.9 16.2917C3.9 16.8186 3.46125 17.2497 2.925 17.2497C2.38875 17.2497 1.95 16.8186 1.95 16.2917C1.95 15.7589 2.38875 15.3338 2.925 15.3338ZM29.4877 16.4474L20.3897 9.19068L18.5616 10.8372C16.7517 12.4598 13.9791 12.3041 12.3642 10.5738C10.725 8.81347 10.853 6.0892 12.6323 4.48457L17.617 0H12.5105C11.9925 0 11.4989 0.203572 11.1333 0.562817L7.8 3.83194V17.2378H8.91516L14.43 22.1414C16.0997 23.4766 18.5555 23.2252 19.9144 21.5846L19.9266 21.5726L21.0173 22.5007C21.9862 23.2791 23.4183 23.1294 24.2044 22.1774L26.1178 19.8662L26.4469 20.1297C27.2817 20.7943 28.5127 20.6745 29.1891 19.8483L29.768 19.1477C30.4505 18.3215 30.3225 17.118 29.4877 16.4474Z" fill="#007AFF"/>
</svg>
