<svg width="20" height="20" viewBox="0 0 20 20" fill="none" xmlns="http://www.w3.org/2000/svg">
<g id="dashicons:whatsapp">
<path id="Vector" d="M16.6912 5.76861C14.3296 2.12781 9.50798 1.04541 5.76878 3.30861C2.12798 5.57181 0.947178 10.4918 3.30878 14.1326L3.50558 14.4278L2.71838 17.3798L5.67038 16.5926L5.96558 16.7894C7.24478 17.4782 8.62238 17.8718 9.99998 17.8718C11.476 17.8718 12.952 17.4782 14.2312 16.691C17.872 14.3294 18.9544 9.50781 16.6912 5.76861ZM14.6248 13.3454C14.2312 13.9358 13.7392 14.3294 13.0504 14.4278C12.6568 14.4278 12.1648 14.6246 10.1968 13.8374C8.52398 13.0502 7.14638 11.771 6.16238 10.295C5.57198 9.60621 5.27678 8.72061 5.17838 7.83501C5.17838 7.04781 5.47358 6.35901 5.96558 5.86701C6.16238 5.67021 6.35918 5.57181 6.55598 5.57181H7.04798C7.24478 5.57181 7.44158 5.57181 7.53998 5.96541C7.73678 6.45741 8.22878 7.63821 8.22878 7.73661C8.32718 7.83501 8.32718 8.03181 8.22878 8.13021C8.32718 8.32701 8.22878 8.52381 8.13038 8.62221C8.03198 8.72061 7.93358 8.91741 7.83518 9.01581C7.63838 9.11421 7.53998 9.31101 7.63838 9.50781C8.03198 10.0982 8.52398 10.6886 9.01598 11.1806C9.60638 11.6726 10.1968 12.0662 10.8856 12.3614C11.0824 12.4598 11.2792 12.4598 11.3776 12.263C11.476 12.0662 11.968 11.5742 12.1648 11.3774C12.3616 11.1806 12.46 11.1806 12.6568 11.279L14.2312 12.0662C14.428 12.1646 14.6248 12.263 14.7232 12.3614C14.8216 12.6566 14.8216 13.0502 14.6248 13.3454Z" fill="#0279FC"/>
</g>
</svg>
