<svg width="22" height="21" viewBox="0 0 22 21" fill="none" xmlns="http://www.w3.org/2000/svg">
<g id="ant-design:instagram-filled">
<path id="Vector" d="M11.0001 7.76638C9.42315 7.76638 8.13624 8.9948 8.13624 10.5001C8.13624 12.0053 9.42315 13.2338 11.0001 13.2338C12.5771 13.2338 13.864 12.0053 13.864 10.5001C13.864 8.9948 12.5771 7.76638 11.0001 7.76638ZM19.5896 10.5001C19.5896 9.36804 19.6003 8.24626 19.5337 7.11628C19.4671 5.80378 19.1534 4.63894 18.148 3.67917C17.1403 2.71736 15.9222 2.41999 14.5472 2.35642C13.3612 2.29285 12.186 2.3031 11.0023 2.3031C9.81631 2.3031 8.64112 2.29285 7.45733 2.35642C6.08233 2.41999 4.86202 2.71941 3.85655 3.67917C2.84893 4.64099 2.53741 5.80378 2.47081 7.11628C2.4042 8.24831 2.41495 9.37009 2.41495 10.5001C2.41495 11.6301 2.4042 12.7539 2.47081 13.8839C2.53741 15.1964 2.85108 16.3612 3.85655 17.321C4.86416 18.2828 6.08233 18.5801 7.45733 18.6437C8.64327 18.7073 9.81846 18.697 11.0023 18.697C12.1882 18.697 13.3634 18.7073 14.5472 18.6437C15.9222 18.5801 17.1425 18.2807 18.148 17.321C19.1556 16.3592 19.4671 15.1964 19.5337 13.8839C19.6024 12.7539 19.5896 11.6321 19.5896 10.5001ZM11.0001 14.7062C8.56163 14.7062 6.59366 12.8277 6.59366 10.5001C6.59366 8.17243 8.56163 6.29392 11.0001 6.29392C13.4386 6.29392 15.4065 8.17243 15.4065 10.5001C15.4065 12.8277 13.4386 14.7062 11.0001 14.7062ZM15.587 7.10398C15.0177 7.10398 14.5579 6.66511 14.5579 6.12165C14.5579 5.5782 15.0177 5.13933 15.587 5.13933C16.1564 5.13933 16.6161 5.5782 16.6161 6.12165C16.6163 6.2507 16.5898 6.37851 16.5381 6.49776C16.4865 6.61702 16.4107 6.72537 16.3151 6.81662C16.2195 6.90787 16.106 6.98022 15.981 7.02953C15.8561 7.07884 15.7222 7.10414 15.587 7.10398Z" fill="#0279FC"/>
</g>
</svg>
