<svg width="17" height="25" viewBox="0 0 17 25" fill="none" xmlns="http://www.w3.org/2000/svg">
<path d="M9.00923 0C9.46429 0.0814621 9.93182 0.131593 10.3807 0.23812C13.7095 1.02768 16.2716 3.87885 16.7142 7.28773C17.0134 9.5812 16.4773 11.6616 15.1121 13.5164C13.6347 15.5154 12.1448 17.5081 10.6487 19.4945C9.67624 20.7854 7.92455 21.0172 6.6778 20.0272C6.47208 19.8642 6.28507 19.6637 6.12923 19.4569C4.65182 17.4893 3.17442 15.5091 1.70325 13.5352C0.487668 11.906 -0.0733709 10.07 0.00766803 8.03342C0.157278 4.46789 2.66949 1.2846 6.08559 0.332115C6.59053 0.194256 7.1204 0.131593 7.6378 0.0375979C7.68767 0.0250653 7.74377 0.0125326 7.79364 0C8.19884 0 8.60403 0 9.00923 0ZM14.9375 8.28407C14.9188 8.09608 14.8939 7.73264 14.8378 7.36919C14.2269 3.31488 9.85079 0.802089 6.05442 2.31227C1.96507 3.94151 0.574941 8.88564 3.21182 12.4386C4.65182 14.3812 6.10429 16.3175 7.55053 18.2538C8.06169 18.9368 8.72871 18.9431 9.23988 18.2601C10.6923 16.3175 12.1386 14.3749 13.591 12.4324C14.47 11.2543 14.9188 9.93838 14.9375 8.28407Z" fill="#007AFF"/>
<path d="M8.42384 22.1388C9.65812 22.1388 10.8924 22.1325 12.1329 22.1388C12.6254 22.1388 13.0181 22.5022 13.0618 22.9847C13.1116 23.461 12.7875 23.8933 12.3137 23.9936C12.2451 24.0061 12.1766 24.0124 12.108 24.0124C9.63942 24.0124 7.16462 24.0124 4.69604 24.0124C4.18488 24.0124 3.78591 23.6552 3.74228 23.1664C3.69864 22.6839 4.01656 22.2516 4.49033 22.1576C4.59007 22.1388 4.68981 22.1388 4.78955 22.1388C5.9989 22.1388 7.21449 22.1388 8.42384 22.1388Z" fill="#007AFF"/>
<path d="M8.39307 5.6272C9.93281 5.6272 11.1983 6.89299 11.1983 8.44077C11.1983 9.98855 9.93281 11.2606 8.39307 11.2544C6.8658 11.2544 5.60034 9.98855 5.60034 8.45331C5.60034 6.90553 6.85333 5.63346 8.39307 5.6272ZM8.3993 9.38072C8.91047 9.38072 9.33437 8.95461 9.32813 8.44077C9.32813 7.92694 8.90424 7.50083 8.39307 7.50709C7.8819 7.50709 7.46424 7.92694 7.46424 8.44704C7.47047 8.96088 7.88813 9.38072 8.3993 9.38072Z" fill="#007AFF"/>
</svg>
