<svg width="344" height="198" viewBox="0 0 344 198" fill="none" xmlns="http://www.w3.org/2000/svg">
<path d="M236.308 51.5226C227.664 53.3673 209.977 45 209.977 45L187.836 59.6923C187.437 59.5605 187.038 59.4287 186.639 59.2311C189.897 53.9603 189.565 50.6002 189.565 50.6002C186.44 51.6543 183.115 53.7626 182.251 54.3556C180.522 52.5767 178.66 52.7744 177.264 54.2238C176.134 53.4991 173.075 51.5885 170.149 50.6002C170.149 50.6002 169.817 53.8285 172.876 58.8358C172.41 59.0334 172.011 59.2311 171.612 59.3628L149.936 45C149.936 45 132.183 53.3673 123.606 51.5226C123.606 51.5226 110.374 66.0831 95.148 70.0361C96.6773 69.7067 106.917 67.6643 110.441 74.9116C110.441 74.9116 126.465 70.7609 134.909 83.0813C134.909 83.0813 149.404 75.3069 161.572 81.1047C166.625 83.4766 169.817 89.2744 169.817 89.2744L180.589 108.051V107.986L191.825 89.2744L196.48 82.0271C197.078 81.7636 197.677 81.4341 198.275 81.1706C210.443 75.3728 224.938 83.1471 224.938 83.1471C233.382 70.7609 249.406 74.9775 249.406 74.9775C252.997 67.7302 263.17 69.7067 264.699 70.102C249.539 66.0831 236.308 51.5226 236.308 51.5226Z" fill="url(#paint0_linear_13_3966)" fill-opacity="0.6"/>
<g filter="url(#filter0_dd_13_3966)">
<path d="M166.759 59.7582L160.642 56.1346C157.118 53.9604 153.527 51.7862 150.003 49.5461L152.995 71.881L149.072 50.0073L136.771 74.2528L148.008 49.9414C147.343 50.4685 146.413 51.1932 145.282 52.1156C142.955 53.9604 139.697 56.2663 136.439 58.4405C134.777 59.4947 133.114 60.6147 131.519 61.5371C130.721 61.9983 129.923 62.4595 129.191 62.8548C128.46 63.2501 127.795 63.7113 127.064 64.0407C124.404 65.3584 122.609 66.2149 122.609 66.2149C122.609 66.2149 124.338 65.2925 126.997 63.9089C127.662 63.5795 128.327 63.1183 129.058 62.6571C129.79 62.196 130.521 61.7348 131.319 61.2736C132.915 60.2853 134.511 59.1653 136.106 58.0452C139.298 55.7393 142.423 53.3674 144.684 51.4568C145.615 50.732 146.346 50.0732 146.944 49.5461C144.085 50.9297 141.16 52.1815 138.168 53.2357C136.306 53.8945 134.511 54.4875 132.582 54.8828C132.117 55.0145 131.652 55.0804 131.186 55.2122C130.721 55.2781 130.255 55.4098 129.723 55.4757C128.793 55.6075 127.795 55.6734 126.798 55.6734C127.795 55.6075 128.726 55.4757 129.657 55.2781C130.122 55.2122 130.588 55.0804 131.053 54.9487C131.519 54.8169 131.984 54.6851 132.45 54.5533C134.311 53.9604 136.106 53.3674 137.902 52.6427C141.492 51.1932 145.016 49.612 148.407 47.8331L148.673 47.7014L148.939 47.8331C152.995 50.2709 156.985 52.8403 161.04 55.4098L167.025 59.297C169.019 60.6147 170.948 61.9324 172.942 63.316C170.881 62.1301 168.82 61.01 166.759 59.7582Z" fill="#007AFF"/>
</g>
<g filter="url(#filter1_dd_13_3966)">
<path d="M176.134 59.7789C175.403 59.0542 175.27 58 175.27 58C175.27 58 176.333 58.1318 177.065 58.8565C177.796 59.5812 177.929 60.6354 177.929 60.6354C177.929 60.6354 176.865 60.5036 176.134 59.7789Z" fill="#FF0000"/>
</g>
<g filter="url(#filter2_dd_13_3966)">
<path d="M184.179 59.7789C183.448 60.5036 182.384 60.6354 182.384 60.6354C182.384 60.6354 182.517 59.5812 183.249 58.8565C183.98 58.1318 185.044 58 185.044 58C185.044 58 184.911 59.0542 184.179 59.7789Z" fill="#FF0000"/>
</g>
<g filter="url(#filter3_dd_13_3966)">
<path d="M232.851 64.0407C232.186 63.7113 231.521 63.316 230.723 62.8548C229.991 62.4595 229.194 61.9983 228.396 61.5371C226.8 60.6147 225.138 59.4947 223.475 58.4405C220.217 56.2663 216.959 53.9604 214.632 52.1156C213.768 51.4568 212.97 50.8638 212.371 50.3367L223.475 74.3846L211.042 49.8755L207.185 71.6833L210.111 49.4802C206.72 51.7203 203.262 53.8945 199.805 56.0687L193.954 59.6923C192.025 60.8783 190.031 62.0642 188.036 63.1842C189.898 61.8665 191.759 60.483 193.688 59.2311L199.406 55.344C203.262 52.8403 207.052 50.2709 210.975 47.8331L211.241 47.7014L211.507 47.8331C214.898 49.612 218.422 51.1932 222.013 52.6427C223.808 53.3674 225.603 53.9604 227.465 54.5533C227.93 54.6851 228.396 54.8169 228.861 54.9487C229.327 55.0804 229.792 55.2122 230.257 55.2781C231.188 55.4757 232.186 55.6075 233.117 55.6734C232.119 55.6734 231.188 55.6075 230.191 55.4757C229.726 55.4098 229.26 55.344 228.728 55.2122C228.263 55.1463 227.797 55.0145 227.332 54.8828C225.404 54.4875 223.608 53.8286 221.747 53.2357C218.755 52.1815 215.829 50.9297 212.97 49.5461C213.568 50.0732 214.366 50.732 215.231 51.4568C217.491 53.3674 220.616 55.7393 223.808 58.0452C225.47 59.1653 227.066 60.2853 228.595 61.2736C229.393 61.7348 230.124 62.1959 230.856 62.6571C231.587 63.1183 232.252 63.5795 232.917 63.9089C235.51 65.2925 237.305 66.2149 237.305 66.2149C237.305 66.2149 235.51 65.3584 232.851 64.0407Z" fill="#007AFF"/>
</g>
<path d="M27.1282 102.979C28.192 103.374 29.0564 104.033 29.7878 105.153C30.5192 106.207 30.8517 107.59 30.8517 109.303C30.8517 110.489 30.7187 111.609 30.3862 112.598C30.0538 113.586 29.5219 114.442 28.7905 115.167C28.0591 115.892 27.0617 116.485 25.7984 116.88C24.5351 117.276 22.9393 117.539 21.0775 117.539H0V100.343H21.277C21.8089 100.343 22.3409 100.211 22.7398 99.9479C23.1388 99.6844 23.3382 99.1573 23.3382 98.4325C23.3382 97.7078 23.1388 97.2466 22.6733 96.9831C22.2744 96.7195 21.7424 96.5878 21.2105 96.5878H0L5.05329 89.2087H20.9446C22.4074 89.2087 23.6707 89.3405 24.8675 89.6699C25.9979 89.9993 26.9952 90.4605 27.8596 91.1194C28.6575 91.7782 29.3224 92.5688 29.7878 93.5571C30.2533 94.5454 30.4527 95.6654 30.4527 96.9831C30.4527 97.8396 30.3862 98.5643 30.1868 99.2232C29.9873 99.882 29.7213 100.409 29.4554 100.936C29.1894 101.463 28.7905 101.859 28.3915 102.188C27.9261 102.583 27.5271 102.847 27.1282 102.979ZM7.44695 106.405V110.292H21.144C21.9419 110.292 22.5403 110.094 22.8728 109.765C23.2052 109.435 23.4047 108.908 23.4047 108.315C23.4047 107.722 23.2052 107.195 22.8728 106.932C22.5403 106.602 21.9419 106.47 21.144 106.47H7.44695V106.405Z" fill="#007AFF"/>
<path d="M44.7481 117.539L49.2029 110.291H55.2536C55.985 110.291 56.7164 110.291 57.5143 110.291C58.3122 110.291 58.9771 110.291 59.5755 110.357C59.243 109.83 58.8441 109.237 58.3787 108.447C57.9132 107.656 57.5143 106.931 57.1153 106.272L52.7934 98.8275L41.5565 117.605H32.7133L48.1391 92.0414C48.671 91.2508 49.2694 90.526 50.0673 89.8672C50.8652 89.2083 51.7961 88.8789 52.9929 88.8789C54.1232 88.8789 55.0541 89.2083 55.7855 89.8013C56.5169 90.3943 57.1818 91.1849 57.7137 92.0414L72.7406 117.605H44.7481V117.539Z" fill="#007AFF"/>
<path d="M131.186 110.292L126.399 117.539H114.364C112.303 117.539 110.374 117.144 108.579 116.419C106.784 115.694 105.255 114.706 103.991 113.388C102.728 112.137 101.731 110.555 100.999 108.842C100.268 107.063 99.9354 105.153 99.9354 103.11C99.9354 101.068 100.268 99.1573 100.999 97.4443C101.731 95.7313 102.728 94.2818 103.991 93.03C105.255 91.7782 106.784 90.8558 108.579 90.197C110.374 89.5381 112.303 89.2087 114.364 89.2087H131.186L126.399 96.5878H114.364C113.366 96.5878 112.436 96.7854 111.571 97.1149C110.707 97.4443 109.975 97.9055 109.377 98.4984C108.779 99.0914 108.247 99.8161 107.914 100.673C107.582 101.529 107.382 102.451 107.382 103.44C107.382 104.428 107.582 105.35 107.914 106.207C108.247 107.063 108.779 107.722 109.377 108.315C110.042 108.908 110.773 109.369 111.638 109.699C112.502 110.028 113.433 110.16 114.43 110.16H131.186V110.292Z" fill="#007AFF"/>
<path d="M143.952 117.539L148.407 110.291H154.458C155.189 110.291 155.921 110.291 156.719 110.291C157.516 110.291 158.181 110.291 158.78 110.357C158.447 109.83 158.048 109.237 157.583 108.447C157.117 107.656 156.719 106.931 156.32 106.272L151.998 98.8275L140.761 117.605H131.984L147.41 92.0414C147.942 91.2508 148.54 90.526 149.338 89.8672C150.136 89.2083 151.067 88.8789 152.264 88.8789C153.394 88.8789 154.325 89.2083 155.056 89.8013C155.788 90.3943 156.453 91.1849 156.985 92.0414L172.011 117.605H143.952V117.539Z" fill="#007AFF"/>
<path d="M231.188 110.291L226.401 117.539H203.262V89.2743H231.055L226.268 96.6534H210.775V100.014H229.792L225.536 106.404H210.775V110.226H231.188V110.291Z" fill="#007AFF"/>
<path d="M200.602 89.2743L185.243 114.838C184.711 115.628 184.046 116.353 183.315 117.012C182.517 117.671 181.586 118 180.456 118C179.325 118 178.395 117.671 177.663 117.078C176.932 116.485 176.267 115.694 175.735 114.838L160.708 89.2743H169.817L180.589 108.051V107.986L191.826 89.2743H200.602Z" fill="#007AFF"/>
<path d="M101.797 89.2743L97.0096 96.5875H88.4324V113.652L80.9854 117.539V96.5875H69.7485L74.5358 89.2743H101.797Z" fill="#007AFF"/>
<defs>
<filter id="filter0_dd_13_3966" x="34.3292" y="-75.8902" width="244.549" height="273.735" filterUnits="userSpaceOnUse" color-interpolation-filters="sRGB">
<feFlood flood-opacity="0" result="BackgroundImageFix"/>
<feColorMatrix in="SourceAlpha" type="matrix" values="0 0 0 0 0 0 0 0 0 0 0 0 0 0 0 0 0 0 127 0" result="hardAlpha"/>
<feOffset dx="17.6559" dy="35.3119"/>
<feGaussianBlur stdDeviation="44.1399"/>
<feComposite in2="hardAlpha" operator="out"/>
<feColorMatrix type="matrix" values="0 0 0 0 0 0 0 0 0 0 0 0 0 0 0 0 0 0 0.25 0"/>
<feBlend mode="normal" in2="BackgroundImageFix" result="effect1_dropShadow_13_3966"/>
<feColorMatrix in="SourceAlpha" type="matrix" values="0 0 0 0 0 0 0 0 0 0 0 0 0 0 0 0 0 0 127 0" result="hardAlpha"/>
<feOffset dy="-35.3119"/>
<feGaussianBlur stdDeviation="44.1399"/>
<feComposite in2="hardAlpha" operator="out"/>
<feColorMatrix type="matrix" values="0 0 0 0 0 0 0 0 0 0 0 0 0 0 0 0 0 0 0.25 0"/>
<feBlend mode="normal" in2="effect1_dropShadow_13_3966" result="effect2_dropShadow_13_3966"/>
<feBlend mode="normal" in="SourceGraphic" in2="effect2_dropShadow_13_3966" result="shape"/>
</filter>
<filter id="filter1_dd_13_3966" x="86.9899" y="-65.5916" width="196.875" height="249.819" filterUnits="userSpaceOnUse" color-interpolation-filters="sRGB">
<feFlood flood-opacity="0" result="BackgroundImageFix"/>
<feColorMatrix in="SourceAlpha" type="matrix" values="0 0 0 0 0 0 0 0 0 0 0 0 0 0 0 0 0 0 127 0" result="hardAlpha"/>
<feOffset dx="17.6559" dy="35.3119"/>
<feGaussianBlur stdDeviation="44.1399"/>
<feComposite in2="hardAlpha" operator="out"/>
<feColorMatrix type="matrix" values="0 0 0 0 0 0 0 0 0 0 0 0 0 0 0 0 0 0 0.25 0"/>
<feBlend mode="normal" in2="BackgroundImageFix" result="effect1_dropShadow_13_3966"/>
<feColorMatrix in="SourceAlpha" type="matrix" values="0 0 0 0 0 0 0 0 0 0 0 0 0 0 0 0 0 0 127 0" result="hardAlpha"/>
<feOffset dy="-35.3119"/>
<feGaussianBlur stdDeviation="44.1399"/>
<feComposite in2="hardAlpha" operator="out"/>
<feColorMatrix type="matrix" values="0 0 0 0 0 0 0 0 0 0 0 0 0 0 0 0 0 0 0.25 0"/>
<feBlend mode="normal" in2="effect1_dropShadow_13_3966" result="effect2_dropShadow_13_3966"/>
<feBlend mode="normal" in="SourceGraphic" in2="effect2_dropShadow_13_3966" result="shape"/>
</filter>
<filter id="filter2_dd_13_3966" x="94.1044" y="-65.5916" width="196.875" height="249.819" filterUnits="userSpaceOnUse" color-interpolation-filters="sRGB">
<feFlood flood-opacity="0" result="BackgroundImageFix"/>
<feColorMatrix in="SourceAlpha" type="matrix" values="0 0 0 0 0 0 0 0 0 0 0 0 0 0 0 0 0 0 127 0" result="hardAlpha"/>
<feOffset dx="17.6559" dy="35.3119"/>
<feGaussianBlur stdDeviation="44.1399"/>
<feComposite in2="hardAlpha" operator="out"/>
<feColorMatrix type="matrix" values="0 0 0 0 0 0 0 0 0 0 0 0 0 0 0 0 0 0 0.25 0"/>
<feBlend mode="normal" in2="BackgroundImageFix" result="effect1_dropShadow_13_3966"/>
<feColorMatrix in="SourceAlpha" type="matrix" values="0 0 0 0 0 0 0 0 0 0 0 0 0 0 0 0 0 0 127 0" result="hardAlpha"/>
<feOffset dy="-35.3119"/>
<feGaussianBlur stdDeviation="44.1399"/>
<feComposite in2="hardAlpha" operator="out"/>
<feColorMatrix type="matrix" values="0 0 0 0 0 0 0 0 0 0 0 0 0 0 0 0 0 0 0.25 0"/>
<feBlend mode="normal" in2="effect1_dropShadow_13_3966" result="effect2_dropShadow_13_3966"/>
<feBlend mode="normal" in="SourceGraphic" in2="effect2_dropShadow_13_3966" result="shape"/>
</filter>
<filter id="filter3_dd_13_3966" x="99.7562" y="-75.8902" width="243.485" height="273.866" filterUnits="userSpaceOnUse" color-interpolation-filters="sRGB">
<feFlood flood-opacity="0" result="BackgroundImageFix"/>
<feColorMatrix in="SourceAlpha" type="matrix" values="0 0 0 0 0 0 0 0 0 0 0 0 0 0 0 0 0 0 127 0" result="hardAlpha"/>
<feOffset dx="17.6559" dy="35.3119"/>
<feGaussianBlur stdDeviation="44.1399"/>
<feComposite in2="hardAlpha" operator="out"/>
<feColorMatrix type="matrix" values="0 0 0 0 0 0 0 0 0 0 0 0 0 0 0 0 0 0 0.25 0"/>
<feBlend mode="normal" in2="BackgroundImageFix" result="effect1_dropShadow_13_3966"/>
<feColorMatrix in="SourceAlpha" type="matrix" values="0 0 0 0 0 0 0 0 0 0 0 0 0 0 0 0 0 0 127 0" result="hardAlpha"/>
<feOffset dy="-35.3119"/>
<feGaussianBlur stdDeviation="44.1399"/>
<feComposite in2="hardAlpha" operator="out"/>
<feColorMatrix type="matrix" values="0 0 0 0 0 0 0 0 0 0 0 0 0 0 0 0 0 0 0.25 0"/>
<feBlend mode="normal" in2="effect1_dropShadow_13_3966" result="effect2_dropShadow_13_3966"/>
<feBlend mode="normal" in="SourceGraphic" in2="effect2_dropShadow_13_3966" result="shape"/>
</filter>
<linearGradient id="paint0_linear_13_3966" x1="179.924" y1="45" x2="179.924" y2="108.051" gradientUnits="userSpaceOnUse">
<stop stop-color="white"/>
<stop offset="1" stop-color="white" stop-opacity="0"/>
</linearGradient>
</defs>
</svg>
