<svg width="361" height="191" viewBox="0 0 361 191" fill="none" xmlns="http://www.w3.org/2000/svg">
<path d="M253.538 41.9982C244.264 43.9774 225.288 35 225.288 35L201.532 50.7635C201.104 50.6222 200.676 50.4808 200.248 50.2687C203.744 44.6136 203.387 41.0085 203.387 41.0085C200.034 42.1395 196.467 44.4016 195.54 45.0378C193.685 43.1292 191.688 43.3413 190.189 44.8964C188.977 44.1188 185.695 42.0689 182.556 41.0085C182.556 41.0085 182.2 44.4723 185.481 49.8446C184.982 50.0567 184.554 50.2687 184.126 50.4101L160.869 35C160.869 35 141.822 43.9774 132.619 41.9982C132.619 41.9982 118.423 57.6203 102.086 61.8617C103.727 61.5082 114.713 59.3169 118.494 67.0926C118.494 67.0926 135.687 62.6392 144.747 75.858C144.747 75.858 160.298 67.5167 173.353 73.7373C178.775 76.2821 182.2 82.5027 182.2 82.5027L193.756 102.649V102.578L205.813 82.5027L210.806 74.727C211.448 74.4442 212.091 74.0908 212.733 73.808C225.788 67.5874 241.339 75.9287 241.339 75.9287C250.399 62.6392 267.592 67.1633 267.592 67.1633C271.444 59.3876 282.359 61.5082 284 61.9323C267.735 57.6203 253.538 41.9982 253.538 41.9982Z" fill="url(#paint0_linear_467_145)" fill-opacity="0.6"/>
<g filter="url(#filter0_dd_467_145)">
<path d="M178.918 50.8344L172.355 46.9465C168.574 44.6138 164.721 42.2811 160.94 39.8777L164.151 63.8411L159.942 40.3725L146.744 66.3859L158.8 40.3018C158.087 40.8673 157.088 41.6449 155.875 42.6345C153.379 44.6138 149.883 47.0879 146.387 49.4206C144.604 50.5516 142.82 51.7533 141.108 52.743C140.252 53.2378 139.396 53.7326 138.611 54.1567C137.827 54.5809 137.113 55.0757 136.329 55.4291C133.475 56.8429 131.549 57.7619 131.549 57.7619C131.549 57.7619 133.404 56.7722 136.257 55.2878C136.971 54.9343 137.684 54.4395 138.469 53.9447C139.253 53.4499 140.038 52.955 140.894 52.4602C142.606 51.3999 144.318 50.1982 146.031 48.9965C149.455 46.5224 152.808 43.9776 155.233 41.9276C156.232 41.1501 157.017 40.4432 157.659 39.8777C154.591 41.3621 151.452 42.7052 148.242 43.8362C146.245 44.5431 144.318 45.1793 142.25 45.6034C141.75 45.7448 141.251 45.8155 140.752 45.9569C140.252 46.0276 139.753 46.1689 139.182 46.2396C138.183 46.381 137.113 46.4517 136.043 46.4517C137.113 46.381 138.112 46.2396 139.111 46.0276C139.61 45.9569 140.11 45.8155 140.609 45.6741C141.108 45.5327 141.608 45.3914 142.107 45.25C144.104 44.6138 146.031 43.9776 147.957 43.2C151.809 41.6449 155.59 39.9483 159.228 38.0398L159.514 37.8984L159.799 38.0398C164.151 40.6552 168.431 43.4121 172.783 46.1689L179.203 50.3396C181.343 51.7533 183.412 53.1671 185.552 54.6516C183.341 53.3792 181.129 52.1775 178.918 50.8344Z" fill="#0279FC"/>
</g>
<g filter="url(#filter1_dd_467_145)">
<path d="M188.976 49.7036C188.191 48.9261 188.049 47.7951 188.049 47.7951C188.049 47.7951 189.19 47.9364 189.975 48.714C190.76 49.4916 190.902 50.6226 190.902 50.6226C190.902 50.6226 189.761 50.4812 188.976 49.7036Z" fill="#FF0000"/>
</g>
<g filter="url(#filter2_dd_467_145)">
<path d="M197.609 49.7036C196.824 50.4812 195.683 50.6226 195.683 50.6226C195.683 50.6226 195.825 49.4916 196.61 48.714C197.395 47.9364 198.536 47.7951 198.536 47.7951C198.536 47.7951 198.394 48.9261 197.609 49.7036Z" fill="#FF0000"/>
</g>
<g filter="url(#filter3_dd_467_145)">
<path d="M249.83 55.4291C249.116 55.0757 248.403 54.6516 247.547 54.1567C246.762 53.7326 245.906 53.2378 245.05 52.743C243.338 51.7533 241.554 50.5516 239.771 49.4206C236.275 47.0879 232.779 44.6138 230.283 42.6345C229.355 41.9276 228.499 41.2914 227.857 40.7259L239.771 66.5272L226.43 40.2311L222.293 63.629L225.432 39.807C221.793 42.2104 218.084 44.5431 214.374 46.8758L208.096 50.7637C206.027 52.0361 203.887 53.3085 201.747 54.5102C203.745 53.0964 205.742 51.612 207.811 50.2689L213.946 46.0982C218.084 43.4121 222.15 40.6552 226.359 38.0398L226.644 37.8984L226.93 38.0398C230.568 39.9483 234.349 41.6449 238.201 43.2C240.127 43.9776 242.054 44.6138 244.051 45.25C244.55 45.3914 245.05 45.5327 245.549 45.6741C246.049 45.8155 246.548 45.9569 247.047 46.0276C248.046 46.2396 249.116 46.381 250.115 46.4517C249.045 46.4517 248.046 46.381 246.976 46.2396C246.477 46.1689 245.977 46.0982 245.406 45.9569C244.907 45.8862 244.408 45.7448 243.908 45.6034C241.84 45.1793 239.913 44.4724 237.916 43.8362C234.706 42.7052 231.567 41.3621 228.499 39.8777C229.141 40.4432 229.997 41.1501 230.925 41.9276C233.35 43.9776 236.703 46.5224 240.127 48.9965C241.911 50.1982 243.623 51.3999 245.264 52.4602C246.12 52.955 246.905 53.4499 247.689 53.9447C248.474 54.4395 249.187 54.9343 249.901 55.2878C252.683 56.7722 254.609 57.7619 254.609 57.7619C254.609 57.7619 252.683 56.8429 249.83 55.4291Z" fill="#0279FC"/>
</g>
<path d="M29.1063 97.206C30.2477 97.6302 31.1751 98.337 31.9598 99.5387C32.7446 100.67 33.1012 102.154 33.1012 103.992C33.1012 105.265 32.9586 106.466 32.6019 107.527C32.2452 108.587 31.6745 109.506 30.8897 110.283C30.105 111.061 29.0349 111.697 27.6795 112.121C26.3241 112.545 24.6119 112.828 22.6144 112.828H0V94.3785H22.8284C23.3992 94.3785 23.9699 94.2371 24.3979 93.9544C24.8259 93.6716 25.04 93.1061 25.04 92.3285C25.04 91.5509 24.8259 91.0561 24.3266 90.7734C23.8985 90.4906 23.3278 90.3492 22.7571 90.3492H0L5.42176 82.4321H22.4718C24.0412 82.4321 25.3966 82.5735 26.6807 82.9269C27.8935 83.2804 28.9636 83.7752 29.891 84.4821C30.7471 85.189 31.4605 86.0372 31.9598 87.0976C32.4592 88.1579 32.6732 89.3596 32.6732 90.7734C32.6732 91.6923 32.6019 92.4699 32.3879 93.1768C32.1738 93.8837 31.8885 94.4492 31.6031 95.0147C31.3178 95.5802 30.8897 96.0043 30.4617 96.3578C29.9623 96.7819 29.5343 97.0646 29.1063 97.206ZM7.98996 100.882V105.052H22.6858C23.5418 105.052 24.1839 104.84 24.5406 104.487C24.8973 104.134 25.1113 103.568 25.1113 102.932C25.1113 102.296 24.8973 101.73 24.5406 101.447C24.1839 101.094 23.5418 100.953 22.6858 100.953H7.98996V100.882Z" fill="#007AFF"/>
<path d="M48.011 112.828L52.7907 105.052H59.2825C60.0672 105.052 60.852 105.052 61.708 105.052C62.5641 105.052 63.2775 105.052 63.9195 105.123C63.5629 104.557 63.1348 103.921 62.6354 103.073C62.1361 102.225 61.708 101.447 61.28 100.74L56.643 92.7524L44.5867 112.899H35.0986L51.6493 85.4715C52.22 84.6232 52.862 83.8457 53.7181 83.1388C54.5742 82.4319 55.5729 82.0784 56.857 82.0784C58.0698 82.0784 59.0685 82.4319 59.8532 83.0681C60.638 83.7043 61.3513 84.5525 61.9221 85.4715L78.0447 112.899H48.011V112.828Z" fill="#007AFF"/>
<path d="M140.752 105.052L135.616 112.828H122.703C120.492 112.828 118.423 112.404 116.497 111.626C114.571 110.849 112.93 109.789 111.574 108.375C110.219 107.032 109.149 105.335 108.364 103.497C107.579 101.589 107.223 99.5387 107.223 97.3474C107.223 95.1561 107.579 93.1061 108.364 91.2682C109.149 89.4303 110.219 87.8751 111.574 86.5321C112.93 85.189 114.571 84.1993 116.497 83.4924C118.423 82.7856 120.492 82.4321 122.703 82.4321H140.752L135.616 90.3492H122.703C121.633 90.3492 120.634 90.5613 119.707 90.9147C118.78 91.2682 117.995 91.763 117.353 92.3992C116.711 93.0354 116.14 93.813 115.783 94.7319C115.427 95.6509 115.213 96.6405 115.213 97.7008C115.213 98.7612 115.427 99.7508 115.783 100.67C116.14 101.589 116.711 102.296 117.353 102.932C118.066 103.568 118.851 104.063 119.778 104.416C120.706 104.77 121.704 104.911 122.775 104.911H140.752V105.052Z" fill="#007AFF"/>
<path d="M154.448 112.828L159.228 105.052H165.72C166.505 105.052 167.289 105.052 168.145 105.052C169.002 105.052 169.715 105.052 170.357 105.123C170 104.557 169.572 103.921 169.073 103.073C168.574 102.225 168.145 101.447 167.717 100.74L163.08 92.7524L151.024 112.899H141.607L158.158 85.4715C158.729 84.6232 159.371 83.8457 160.227 83.1388C161.083 82.4319 162.082 82.0784 163.366 82.0784C164.579 82.0784 165.577 82.4319 166.362 83.0681C167.147 83.7043 167.86 84.5525 168.431 85.4715L184.553 112.899H154.448V112.828Z" fill="#007AFF"/>
<path d="M248.045 105.052L242.909 112.828H218.083V82.5026H247.903L242.766 90.4197H226.144V94.0248H246.547L241.982 100.882H226.144V104.982H248.045V105.052Z" fill="#007AFF"/>
<path d="M215.229 82.5026L198.75 109.93C198.179 110.778 197.466 111.556 196.681 112.262C195.825 112.969 194.826 113.323 193.613 113.323C192.401 113.323 191.402 112.969 190.617 112.333C189.832 111.697 189.119 110.849 188.548 109.93L172.426 82.5026H182.199L193.756 102.649V102.578L205.812 82.5026H215.229Z" fill="#007AFF"/>
<path d="M109.219 82.5026L104.083 90.349H94.8802V108.657L86.8903 112.828V90.349H74.834L79.9704 82.5026H109.219Z" fill="#007AFF"/>
<defs>
<filter id="filter0_dd_467_145" x="43.2691" y="-85.6932" width="248.219" height="275.671" filterUnits="userSpaceOnUse" color-interpolation-filters="sRGB">
<feFlood flood-opacity="0" result="BackgroundImageFix"/>
<feColorMatrix in="SourceAlpha" type="matrix" values="0 0 0 0 0 0 0 0 0 0 0 0 0 0 0 0 0 0 127 0" result="hardAlpha"/>
<feOffset dx="17.6559" dy="35.3119"/>
<feGaussianBlur stdDeviation="44.1399"/>
<feComposite in2="hardAlpha" operator="out"/>
<feColorMatrix type="matrix" values="0 0 0 0 0 0 0 0 0 0 0 0 0 0 0 0 0 0 0.25 0"/>
<feBlend mode="normal" in2="BackgroundImageFix" result="effect1_dropShadow_467_145"/>
<feColorMatrix in="SourceAlpha" type="matrix" values="0 0 0 0 0 0 0 0 0 0 0 0 0 0 0 0 0 0 127 0" result="hardAlpha"/>
<feOffset dy="-35.3119"/>
<feGaussianBlur stdDeviation="44.1399"/>
<feComposite in2="hardAlpha" operator="out"/>
<feColorMatrix type="matrix" values="0 0 0 0 0 0 0 0 0 0 0 0 0 0 0 0 0 0 0.25 0"/>
<feBlend mode="normal" in2="effect1_dropShadow_467_145" result="effect2_dropShadow_467_145"/>
<feBlend mode="normal" in="SourceGraphic" in2="effect2_dropShadow_467_145" result="shape"/>
</filter>
<filter id="filter1_dd_467_145" x="99.7691" y="-75.7965" width="197.069" height="250.011" filterUnits="userSpaceOnUse" color-interpolation-filters="sRGB">
<feFlood flood-opacity="0" result="BackgroundImageFix"/>
<feColorMatrix in="SourceAlpha" type="matrix" values="0 0 0 0 0 0 0 0 0 0 0 0 0 0 0 0 0 0 127 0" result="hardAlpha"/>
<feOffset dx="17.6559" dy="35.3119"/>
<feGaussianBlur stdDeviation="44.1399"/>
<feComposite in2="hardAlpha" operator="out"/>
<feColorMatrix type="matrix" values="0 0 0 0 0 0 0 0 0 0 0 0 0 0 0 0 0 0 0.25 0"/>
<feBlend mode="normal" in2="BackgroundImageFix" result="effect1_dropShadow_467_145"/>
<feColorMatrix in="SourceAlpha" type="matrix" values="0 0 0 0 0 0 0 0 0 0 0 0 0 0 0 0 0 0 127 0" result="hardAlpha"/>
<feOffset dy="-35.3119"/>
<feGaussianBlur stdDeviation="44.1399"/>
<feComposite in2="hardAlpha" operator="out"/>
<feColorMatrix type="matrix" values="0 0 0 0 0 0 0 0 0 0 0 0 0 0 0 0 0 0 0.25 0"/>
<feBlend mode="normal" in2="effect1_dropShadow_467_145" result="effect2_dropShadow_467_145"/>
<feBlend mode="normal" in="SourceGraphic" in2="effect2_dropShadow_467_145" result="shape"/>
</filter>
<filter id="filter2_dd_467_145" x="107.403" y="-75.7965" width="197.069" height="250.011" filterUnits="userSpaceOnUse" color-interpolation-filters="sRGB">
<feFlood flood-opacity="0" result="BackgroundImageFix"/>
<feColorMatrix in="SourceAlpha" type="matrix" values="0 0 0 0 0 0 0 0 0 0 0 0 0 0 0 0 0 0 127 0" result="hardAlpha"/>
<feOffset dx="17.6559" dy="35.3119"/>
<feGaussianBlur stdDeviation="44.1399"/>
<feComposite in2="hardAlpha" operator="out"/>
<feColorMatrix type="matrix" values="0 0 0 0 0 0 0 0 0 0 0 0 0 0 0 0 0 0 0.25 0"/>
<feBlend mode="normal" in2="BackgroundImageFix" result="effect1_dropShadow_467_145"/>
<feColorMatrix in="SourceAlpha" type="matrix" values="0 0 0 0 0 0 0 0 0 0 0 0 0 0 0 0 0 0 127 0" result="hardAlpha"/>
<feOffset dy="-35.3119"/>
<feGaussianBlur stdDeviation="44.1399"/>
<feComposite in2="hardAlpha" operator="out"/>
<feColorMatrix type="matrix" values="0 0 0 0 0 0 0 0 0 0 0 0 0 0 0 0 0 0 0.25 0"/>
<feBlend mode="normal" in2="effect1_dropShadow_467_145" result="effect2_dropShadow_467_145"/>
<feBlend mode="normal" in="SourceGraphic" in2="effect2_dropShadow_467_145" result="shape"/>
</filter>
<filter id="filter3_dd_467_145" x="113.467" y="-85.6932" width="247.078" height="275.812" filterUnits="userSpaceOnUse" color-interpolation-filters="sRGB">
<feFlood flood-opacity="0" result="BackgroundImageFix"/>
<feColorMatrix in="SourceAlpha" type="matrix" values="0 0 0 0 0 0 0 0 0 0 0 0 0 0 0 0 0 0 127 0" result="hardAlpha"/>
<feOffset dx="17.6559" dy="35.3119"/>
<feGaussianBlur stdDeviation="44.1399"/>
<feComposite in2="hardAlpha" operator="out"/>
<feColorMatrix type="matrix" values="0 0 0 0 0 0 0 0 0 0 0 0 0 0 0 0 0 0 0.25 0"/>
<feBlend mode="normal" in2="BackgroundImageFix" result="effect1_dropShadow_467_145"/>
<feColorMatrix in="SourceAlpha" type="matrix" values="0 0 0 0 0 0 0 0 0 0 0 0 0 0 0 0 0 0 127 0" result="hardAlpha"/>
<feOffset dy="-35.3119"/>
<feGaussianBlur stdDeviation="44.1399"/>
<feComposite in2="hardAlpha" operator="out"/>
<feColorMatrix type="matrix" values="0 0 0 0 0 0 0 0 0 0 0 0 0 0 0 0 0 0 0.25 0"/>
<feBlend mode="normal" in2="effect1_dropShadow_467_145" result="effect2_dropShadow_467_145"/>
<feBlend mode="normal" in="SourceGraphic" in2="effect2_dropShadow_467_145" result="shape"/>
</filter>
<linearGradient id="paint0_linear_467_145" x1="193.043" y1="35" x2="193.043" y2="102.649" gradientUnits="userSpaceOnUse">
<stop stop-color="#007AFF"/>
<stop offset="1" stop-color="white" stop-opacity="0"/>
</linearGradient>
</defs>
</svg>
