<svg width="24" height="24" viewBox="0 0 24 24" fill="none" xmlns="http://www.w3.org/2000/svg">
<path d="M12.0192 21.08C9.53922 21.08 7.07922 21.08 4.59922 21.08C2.49922 21.08 0.799219 19.76 0.319219 17.76C0.239219 17.4 0.199219 17.04 0.199219 16.68C0.199219 13.52 0.199219 10.36 0.199219 7.20005C0.199219 4.94005 1.69922 3.20005 3.91922 2.84005C4.13922 2.80005 4.37922 2.80005 4.59922 2.80005C9.55922 2.80005 14.5192 2.80005 19.4792 2.80005C21.6992 2.80005 23.4192 4.24005 23.8192 6.40005C23.8592 6.66005 23.8792 6.94005 23.8792 7.20005C23.8792 10.36 23.8792 13.52 23.8792 16.68C23.8792 18.9401 22.3792 20.68 20.1592 21.04C19.9192 21.08 19.6592 21.08 19.3992 21.08C16.9392 21.08 14.4792 21.08 12.0192 21.08ZM21.7192 7.40005C21.5992 7.50005 21.5192 7.56005 21.4192 7.62005C19.3992 9.20005 17.3792 10.78 15.3592 12.34C13.3592 13.88 10.6992 13.88 8.69922 12.32C6.65922 10.74 4.63922 9.16005 2.61922 7.58005C2.53922 7.52005 2.47922 7.46005 2.37922 7.40005C2.37922 7.48005 2.37922 7.52005 2.37922 7.56005C2.37922 10.64 2.37922 13.72 2.37922 16.78C2.37922 16.98 2.39922 17.16 2.45922 17.36C2.71922 18.34 3.57922 18.94 4.67922 18.94C8.25922 18.94 11.8592 18.94 15.4392 18.94C16.7992 18.94 18.1392 18.94 19.4992 18.94C20.7992 18.94 21.7392 18.0201 21.7392 16.76C21.7392 13.7 21.7392 10.64 21.7392 7.58005C21.7192 7.54005 21.7192 7.50005 21.7192 7.40005ZM3.25922 5.36005C3.31922 5.42005 3.35922 5.44005 3.39922 5.48005C5.57922 7.18005 7.77922 8.88005 9.95922 10.58C11.2792 11.6 12.8192 11.6 14.1392 10.56C15.8192 9.26005 17.4792 7.96005 19.1592 6.66005C19.7192 6.22005 20.2592 5.80005 20.8392 5.36005C20.4392 5.06005 19.9992 4.94005 19.5392 4.94005C14.5392 4.94005 9.55922 4.94005 4.55922 4.94005C4.09922 4.94005 3.65922 5.06005 3.25922 5.36005Z" fill="#007AFF"/>
</svg>
