<svg width="37" height="36" viewBox="0 0 37 36" fill="none" xmlns="http://www.w3.org/2000/svg">
<g id="Group 34396">
<circle id="Ellipse 108" cx="18.1777" cy="18" r="18" fill="white"/>
<path id="Vector" d="M12.3787 17.9925C12.1783 17.7923 12.0781 17.5374 12.0781 17.2278C12.0781 16.9183 12.1783 16.6634 12.3787 16.4631L17.4058 11.4378C17.5151 11.3285 17.6335 11.2513 17.761 11.2062C17.8885 11.161 18.0251 11.1381 18.1708 11.1373C18.3165 11.1373 18.4531 11.1603 18.5806 11.2062C18.7081 11.252 18.8265 11.3292 18.9358 11.4378L23.963 16.4631C24.1633 16.6634 24.2683 16.9139 24.2777 17.2147C24.2872 17.5155 24.1823 17.7748 23.963 17.9925C23.7626 18.1928 23.5076 18.293 23.198 18.293C22.8883 18.293 22.6333 18.1928 22.433 17.9925L18.1708 13.7592L13.9087 17.9925C13.7083 18.1928 13.4577 18.2977 13.1568 18.3072C12.8559 18.3166 12.5965 18.2118 12.3787 17.9925ZM12.3787 24.5473C12.1783 24.347 12.0781 24.0921 12.0781 23.7826C12.0781 23.4731 12.1783 23.2182 12.3787 23.0179L17.4058 17.9925C17.5151 17.8833 17.6335 17.8061 17.761 17.7609C17.8885 17.7158 18.0251 17.6928 18.1708 17.6921C18.3165 17.6921 18.4531 17.7151 18.5806 17.7609C18.7081 17.8068 18.8265 17.884 18.9358 17.9925L23.963 23.0179C24.1633 23.2182 24.2683 23.4687 24.2777 23.7695C24.2872 24.0703 24.1823 24.3296 23.963 24.5473C23.7626 24.7476 23.5076 24.8478 23.198 24.8478C22.8883 24.8478 22.6333 24.7476 22.433 24.5473L18.1708 20.314L13.9087 24.5473C13.7083 24.7476 13.4577 24.8525 13.1568 24.862C12.8559 24.8714 12.5965 24.7666 12.3787 24.5473Z" fill="#007AFF"/>
</g>
</svg>
