<svg width="24" height="25" viewBox="0 0 24 25" fill="none" xmlns="http://www.w3.org/2000/svg">
<g clip-path="url(#clip0_95_720)">
<path d="M0.00635089 7.11056C0.0444562 6.83142 0.0635089 6.55227 0.114316 6.27947C0.254035 5.5943 0.552527 4.99161 1.04155 4.49676C1.68934 3.83697 2.31172 3.1518 3.00397 2.5491C4.05822 1.6292 5.20773 1.63554 6.22387 2.58717C7.30987 3.60223 8.34507 4.66805 9.35486 5.75291C10.1043 6.55862 10.0979 7.79573 9.36756 8.62682C8.82773 9.2422 8.23075 9.80683 7.64647 10.3905C7.53215 10.5047 7.5131 10.5745 7.58931 10.7267C8.17359 11.9004 8.99286 12.9028 9.88198 13.8544C10.7902 14.8251 11.7936 15.6942 12.9241 16.4175C13.2479 16.6205 13.5909 16.7918 13.9465 16.9884C14.3848 16.5443 14.7976 16.1003 15.2421 15.6879C15.566 15.3834 15.8963 15.0725 16.2773 14.8568C17.0775 14.4064 18.0556 14.5206 18.7161 15.155C19.8275 16.2208 20.9198 17.3056 21.9741 18.4286C22.7552 19.2596 22.7679 20.5221 22.0058 21.3786C21.339 22.1336 20.6277 22.8504 19.9037 23.5547C19.3512 24.0876 18.6589 24.3731 17.8904 24.4746C17.8396 24.4809 17.7888 24.5063 17.738 24.519C17.4395 24.519 17.141 24.519 16.8489 24.519C16.7981 24.5063 16.7473 24.4872 16.6965 24.4746C16.1884 24.3794 15.674 24.3223 15.1786 24.1954C13.4194 23.7323 11.8126 22.9139 10.2821 21.9496C6.4525 19.5134 3.50569 16.2715 1.448 12.2367C0.870072 11.101 0.419159 9.91469 0.165123 8.65854C0.0825615 8.25251 0.057158 7.84014 0 7.43411C0.00635089 7.32626 0.00635089 7.21841 0.00635089 7.11056ZM1.39084 7.30723C1.41625 7.58003 1.4353 7.85283 1.46705 8.11928C1.47976 8.23982 1.51151 8.36671 1.53691 8.48725C1.90527 10.1431 2.60386 11.6657 3.48664 13.0995C5.84282 16.9186 8.9738 19.9004 13.0193 21.8861C14.2641 22.4952 15.5533 22.99 16.9505 23.1169C17.8142 23.193 18.5763 22.99 19.1924 22.3429C19.7005 21.81 20.2212 21.2961 20.7356 20.7696C20.8119 20.6934 20.8881 20.611 20.9516 20.5221C21.2818 20.0971 21.2818 19.6466 20.9198 19.247C20.5515 18.8409 20.1577 18.4603 19.7703 18.0733C19.167 17.4706 18.57 16.8679 17.9603 16.2715C17.5221 15.8401 17.0521 15.8401 16.5885 16.2462C16.5187 16.3096 16.4488 16.3731 16.3853 16.4428C15.8455 16.9757 15.312 17.515 14.7722 18.0479C14.3975 18.4159 13.9783 18.5047 13.5274 18.2826C13.0765 18.0543 12.6192 17.8195 12.1937 17.5531C10.7266 16.6268 9.46282 15.4658 8.33236 14.1653C7.55756 13.2708 6.84626 12.3318 6.34454 11.2533C5.91903 10.3397 5.97618 10.0923 6.70654 9.38812C7.22731 8.88693 7.74808 8.3794 8.2498 7.84648C8.65626 7.41508 8.64356 6.98368 8.2625 6.5269C8.21805 6.47614 8.16724 6.41905 8.12278 6.36829C7.21461 5.45473 6.30008 4.54117 5.38555 3.63395C5.28394 3.53245 5.16327 3.43094 5.03625 3.36116C4.63615 3.13911 4.22334 3.23427 3.81053 3.6403C3.28976 4.14783 2.79439 4.6744 2.26727 5.17559C1.65123 5.77194 1.35909 6.4698 1.39084 7.30723Z" fill="#007AFF"/>
<path d="M13.356 0.5C13.6418 0.557098 13.9911 0.614195 14.3277 0.703013C16.4108 1.22958 18.2589 2.20024 19.8593 3.63402C21.5169 5.1249 22.7363 6.91396 23.4603 9.02657C23.6889 9.68636 23.8286 10.3779 23.9874 11.063C24.0763 11.45 23.8477 11.7672 23.473 11.8561C23.1237 11.9385 22.7807 11.7419 22.6791 11.3739C22.5711 10.9933 22.5076 10.5999 22.3997 10.2129C21.6947 7.63719 20.2404 5.56265 18.1128 3.95757C16.7156 2.91079 15.1533 2.23196 13.4386 1.90206C13.3115 1.87669 13.1782 1.85131 13.0512 1.8069C12.7463 1.6927 12.5748 1.36915 12.632 1.05194C12.6892 0.741078 12.9813 0.5 13.356 0.5Z" fill="#007AFF"/>
<path d="M13.1778 4.8585C13.8001 4.95366 14.4479 5.1313 15.0576 5.41678C17.5599 6.58411 19.0904 8.51908 19.6493 11.2217C19.7319 11.6214 19.5159 11.983 19.1412 12.0718C18.7856 12.1543 18.4363 11.9322 18.322 11.5516C18.1632 11.0377 18.0679 10.4985 17.8457 10.0163C16.8994 7.94811 15.299 6.69196 13.0698 6.22884C12.6633 6.14636 12.4474 5.91163 12.4411 5.55635C12.4284 5.15667 12.7332 4.85215 13.1778 4.8585Z" fill="#007AFF"/>
</g>
<defs>
<clipPath id="clip0_95_720">
<rect width="24" height="24" fill="white" transform="translate(0 0.5)"/>
</clipPath>
</defs>
</svg>
