<svg width="36" height="25" viewBox="0 0 36 25" fill="none" xmlns="http://www.w3.org/2000/svg">
<g id="Group 34420">
<path id="Rectangle 41" d="M0.328125 0.0253906H25.6152C31.1381 0.0253906 35.6152 4.50254 35.6152 10.0254V14.8638C35.6152 20.3866 31.1381 24.8638 25.6152 24.8638H0.328125V0.0253906Z" fill="#007AFF"/>
<path id="Vector" d="M25.4717 5.61156C25.447 5.66523 25.4131 5.71413 25.3714 5.75599L15.8886 15.2361L18.5668 19.7003C18.6142 19.7797 18.6827 19.8444 18.7646 19.8874C18.8465 19.9303 18.9388 19.9497 19.031 19.9434C19.1233 19.9372 19.2121 19.9056 19.2875 19.8521C19.363 19.7985 19.4221 19.7252 19.4585 19.6401L25.4717 5.61156ZM15.1805 14.528L10.716 11.848C10.6366 11.8006 10.5718 11.7321 10.5289 11.6502C10.486 11.5683 10.4666 11.4761 10.4728 11.3838C10.479 11.2915 10.5107 11.2027 10.5642 11.1273C10.6177 11.0519 10.6911 10.9927 10.7761 10.9564L24.8087 4.94458C24.7542 4.96934 24.7046 5.00365 24.6622 5.04588L15.1805 14.528Z" fill="#FEFEFE"/>
</g>
</svg>
