<svg width="34" height="34" viewBox="0 0 34 34" fill="none" xmlns="http://www.w3.org/2000/svg">
<g id="_1" clip-path="url(#clip0_95_629)">
<path id="Vector" fill-rule="evenodd" clip-rule="evenodd" d="M3.62312 15.5813C3.0078 15.5376 2.06457 15.8115 1.77181 16.2366C0.543468 18.0375 3.66057 17.7835 4.53654 17.8242C3.96938 18.3076 1.80392 20.5866 1.67474 21.1283C1.52951 21.7329 1.52951 26.5532 1.51651 27.593C1.4974 28.991 1.19089 32.1654 2.21744 32.9696H0.512893C0.376857 32.97 0.24652 33.0245 0.1504 33.1211C0.0542793 33.2177 0.000201534 33.3487 0 33.4852C0.000403278 33.6217 0.0545693 33.7524 0.150668 33.8488C0.246767 33.9453 0.376989 33.9997 0.512893 34.0001H33.4863C33.6222 33.9997 33.7525 33.9453 33.8486 33.8488C33.9447 33.7524 33.9988 33.6217 33.9992 33.4852C33.999 33.3487 33.945 33.2177 33.8488 33.1211C33.7527 33.0245 33.6224 32.97 33.4863 32.9696H31.7696C33.069 31.9114 32.3199 26.4995 32.3497 24.5881C32.4086 21.0684 32.2985 20.0755 29.4558 17.8242C30.3853 17.7812 33.1798 18.1181 32.284 16.3479C32.0157 15.8107 30.3066 15.1439 29.6752 15.8875C28.3964 17.3876 28.5332 15.7739 27.3645 14.0843C27.2384 13.8303 27.1229 13.6009 27.0098 13.3937C26.8805 13.543 26.7251 13.6673 26.5512 13.7605L28.4935 17.5395C27.3087 17.5311 26.1155 17.4827 24.9177 17.4237C24.3345 18.0306 23.3164 18.382 22.6468 17.7444C22.5367 17.6477 22.2226 17.4421 22.0559 17.4559C21.8648 17.6093 21.5025 18.2171 21.5614 18.468C21.5922 18.5505 21.6122 18.6366 21.621 18.7243C21.7097 19.5261 21.0026 20.1737 20.2964 20.3901C19.4899 20.6809 18.4206 20.4669 18.1011 19.5798L18.0957 19.5691C18.0476 19.421 17.8618 19.0811 17.7005 19.0243C17.4644 19.0696 16.8781 19.421 16.8055 19.6527C16.5991 20.5574 15.5565 20.8728 14.7417 20.6871C13.8795 20.5198 13.0463 19.7931 13.2664 18.8455C13.2939 18.692 13.2993 18.3322 13.2022 18.2002C12.9576 18.1296 12.2697 18.0974 12.1191 18.2677C11.5015 18.9775 10.3863 18.6805 9.77402 18.1142C9.57051 17.9242 9.40364 17.6982 9.28176 17.4474C7.98233 17.515 6.71347 17.5579 5.49659 17.5364C5.88566 16.5512 6.36186 15.658 6.89922 14.6974C6.99858 14.5193 7.08725 14.3574 7.16751 14.2063C7.01944 14.0307 6.89976 13.8329 6.81284 13.62C6.33654 14.3787 5.89975 15.1617 5.50424 15.9657C4.64203 17.6715 4.79796 15.6688 3.62388 15.5821L3.62312 15.5813ZM5.80464 32.9696C6.36645 32.5721 6.21281 31.7304 6.25332 30.7612C10.0339 30.4973 23.973 30.4973 27.7375 30.7612C27.778 31.7035 27.6221 32.5644 28.1893 32.9696H5.80464ZM9.18086 4.85187C9.57834 5.22709 9.53247 6.22 9.41476 6.52539C9.24813 6.8116 8.73218 6.92747 8.19177 6.83232C7.67276 6.71569 7.11171 7.20984 6.96877 7.96565C6.80443 8.67543 7.08954 9.35604 7.60549 9.47497C8.16731 9.59314 8.56784 10.5139 8.59153 10.8216C8.6374 11.1286 8.26362 11.5291 7.74537 11.6657C7.21031 11.8567 6.99323 12.5865 7.21031 13.2932C7.4274 13.9999 8.05112 14.4511 8.57013 14.2861C9.06162 14.0973 9.62802 14.1917 9.7679 14.4756C9.93224 14.7104 10.1172 15.7033 9.74344 16.1246C9.41629 16.5267 9.55846 17.2556 10.0989 17.7521C10.6393 18.2485 11.4121 18.3429 11.7644 17.9408C12.1168 17.5388 13.1013 17.6408 13.4071 17.7551C13.6891 17.8741 13.8321 18.4189 13.735 18.9345C13.5951 19.5016 14.0874 20.0686 14.8395 20.209C15.5458 20.3732 16.2284 20.0686 16.3438 19.5261C16.4867 19.0074 17.3787 18.5593 17.6822 18.5347C17.9857 18.5102 18.3885 18.9107 18.5528 19.4095C18.7409 19.9282 19.4448 20.1845 20.1488 19.9282C20.8528 19.7149 21.2954 19.0995 21.1104 18.6053C20.9468 18.0628 21.5354 17.2341 21.793 17.0477C22.0269 16.8589 22.5696 17.0239 22.9671 17.3776C23.3645 17.7551 24.093 17.6147 24.6089 17.0477C25.0821 16.4814 25.1753 15.7494 24.7779 15.3741C24.3804 14.9989 24.4721 14.006 24.6089 13.7198C24.7297 13.439 25.2457 13.2962 25.7616 13.4129C26.3257 13.5318 26.8898 13.0139 27.0328 12.3041C27.1963 11.5483 26.8898 10.8677 26.3448 10.7495C25.8319 10.652 25.4069 9.73433 25.3588 9.42663C25.3374 9.09438 25.7349 8.74372 26.2294 8.55189C26.7698 8.38691 27.006 7.67714 26.7698 6.97274C26.5329 6.23841 25.929 5.82176 25.4314 5.98213C24.9154 6.12255 24.0693 5.55857 23.8813 5.3184C23.6955 5.03756 23.8598 4.51962 24.2329 4.11677C24.6059 3.71393 24.4431 2.95888 23.8813 2.4655C23.3385 1.96827 22.5918 1.87696 22.2126 2.27367C21.8603 2.67881 20.8505 2.63277 20.5952 2.48928C20.3101 2.36805 20.1465 1.80407 20.262 1.28305C20.4041 0.767415 19.8645 0.198063 19.1605 0.0330886C18.4374 -0.104262 17.7548 0.176578 17.6111 0.720608C17.5163 1.2631 16.6006 1.68973 16.2972 1.71122C15.9876 1.71122 15.6146 1.35979 15.4265 0.814989C15.2599 0.29628 14.5582 0.0829645 13.8519 0.29628C13.1457 0.509595 12.7054 1.11962 12.8659 1.66518C13.005 2.18312 12.4684 2.98497 12.1833 3.17373C11.925 3.36556 11.409 3.21977 11.0092 2.84455C10.611 2.49082 9.86268 2.65579 9.36737 3.17373C8.87282 3.74078 8.77651 4.52115 9.17934 4.85033L9.18086 4.85187ZM15.1651 4.48048C18.2899 3.48296 21.6057 5.20944 22.5918 8.29944C22.8294 9.03785 22.9197 9.81601 22.8578 10.5895C22.7958 11.363 22.5826 12.1166 22.2305 12.8074C21.8784 13.4982 21.3942 14.1126 20.8055 14.6155C20.2169 15.1185 19.5353 15.5001 18.7997 15.7386C18.0641 15.9771 17.289 16.0679 16.5185 16.0056C15.748 15.9434 14.9972 15.7295 14.3091 15.376C13.6209 15.0225 13.0089 14.5364 12.5079 13.9455C12.0069 13.3546 11.6267 12.6704 11.3891 11.9319C10.4008 8.84117 12.0908 5.46189 15.1651 4.48048ZM11.1338 25.6816C11.1352 26.1902 11.3369 26.6778 11.6949 27.0378C12.0528 27.3979 12.538 27.6013 13.0448 27.6037H20.9522C21.459 27.6015 21.9443 27.3981 22.3023 27.038C22.6603 26.6779 22.8619 26.1903 22.8631 25.6816V24.3541C22.8605 23.8461 22.6583 23.3597 22.3005 23.0006C21.9427 22.6414 21.4582 22.4384 20.9522 22.4358H13.0471C12.5411 22.4386 12.0567 22.6416 11.6989 23.0008C11.3412 23.3599 11.1389 23.8462 11.1361 24.3541L11.1338 25.6816ZM8.70007 25.6869C9.13806 25.479 9.58369 24.9718 9.74497 24.5505C8.56555 23.8515 4.18035 23.5407 2.83429 23.8085C2.22738 27.3904 7.46409 26.2778 8.70007 25.6869ZM24.2543 24.5505C24.4155 24.9718 24.8612 25.479 25.2992 25.6869C26.5351 26.2778 31.7719 27.3904 31.1649 23.8085C29.8189 23.5407 25.4322 23.8515 24.2543 24.5505Z" fill="#007AFF"/>
<path id="Vector_2" fill-rule="evenodd" clip-rule="evenodd" d="M18.7868 10.7601C18.7674 10.7404 18.7444 10.7248 18.719 10.7142C18.6936 10.7035 18.6664 10.698 18.6389 10.698C18.6114 10.698 18.5841 10.7035 18.5587 10.7142C18.5333 10.7248 18.5103 10.7404 18.491 10.7601L18.3083 10.9412C18.0102 10.6388 17.7549 10.3879 17.5072 10.1393L18.3862 9.25382L18.7539 8.88397C18.9974 8.9826 19.2636 9.01083 19.5222 8.96546C19.7809 8.92009 20.0217 8.80293 20.2175 8.62725C20.4133 8.45158 20.5561 8.2244 20.6299 7.97142C20.7037 7.71845 20.7055 7.4498 20.635 7.19587L20.5945 7.05545L19.6406 8.0169L18.8456 7.21735L19.7996 6.25667L19.662 6.21907C19.409 6.14696 19.1409 6.1477 18.8884 6.2212C18.6358 6.29469 18.4089 6.43799 18.2336 6.63473C18.0582 6.83147 17.9415 7.07373 17.8967 7.33386C17.852 7.59399 17.8809 7.86152 17.9804 8.10591L17.6112 8.47653L16.7268 9.36201C16.2835 8.92157 15.7484 8.38752 14.9535 7.58874C14.9538 7.58789 14.954 7.58697 14.954 7.58605C14.954 7.58513 14.9538 7.58421 14.9535 7.58336L14.5713 6.9273C14.5657 6.9157 14.5576 6.90548 14.5476 6.89738L13.9024 6.44926C13.8853 6.43796 13.8648 6.43286 13.8444 6.43481C13.824 6.43676 13.8048 6.44565 13.7901 6.46001L13.5019 6.74929C13.4868 6.76359 13.4774 6.78291 13.4754 6.80366C13.4735 6.82441 13.4791 6.84518 13.4912 6.86208L13.9376 7.51047C13.946 7.52076 13.9557 7.5298 13.9667 7.53732L14.6202 7.92099H14.6255C15.3937 8.68831 15.9387 9.24078 16.3989 9.69657L15.5145 10.5821L15.1468 10.9519C14.9034 10.8529 14.6373 10.8245 14.3785 10.8698C14.1198 10.915 13.879 11.0323 13.6833 11.2081C13.4876 11.3839 13.3449 11.6113 13.2715 11.8644C13.1981 12.1175 13.1969 12.3862 13.268 12.64L13.3062 12.7804L14.2625 11.819L15.0582 12.6185L14.1004 13.5807L14.2403 13.6183C14.4932 13.6898 14.761 13.6886 15.0132 13.6149C15.2655 13.5412 15.4921 13.3979 15.6673 13.2014C15.8424 13.0048 15.9592 12.7629 16.0042 12.503C16.0492 12.2432 16.0207 11.9759 15.9219 11.7315L16.2903 11.3594L17.174 10.4716C17.4354 10.7301 17.6899 10.9841 17.9773 11.2757L17.7977 11.4568C17.7779 11.476 17.7622 11.499 17.7515 11.5245C17.7409 11.5499 17.7355 11.5773 17.7358 11.6049C17.7356 11.6326 17.741 11.6601 17.7516 11.6856C17.7623 11.7112 17.7779 11.7344 17.7977 11.7538L19.8279 13.7887C19.8471 13.8084 19.87 13.8241 19.8954 13.8348C19.9207 13.8455 19.9479 13.851 19.9754 13.851C20.0029 13.851 20.0301 13.8455 20.0554 13.8348C20.0807 13.8241 20.1037 13.8084 20.1229 13.7887L20.8162 13.092C20.836 13.0728 20.8517 13.0498 20.8623 13.0243C20.873 12.9989 20.8783 12.9715 20.8781 12.9439C20.8783 12.9162 20.8729 12.8887 20.8622 12.8631C20.8516 12.8375 20.8359 12.8144 20.8162 12.795L18.7868 10.7601ZM19.821 13.3321L18.2517 11.7561L18.4184 11.5911L19.9845 13.1649L19.821 13.3321ZM20.1917 12.9569L18.6255 11.3862L18.7891 11.2189L20.3583 12.795L20.1917 12.9569Z" fill="#007AFF"/>
</g>
<defs>
<clipPath id="clip0_95_629">
<rect width="34" height="34" fill="white"/>
</clipPath>
</defs>
</svg>
