<svg width="34" height="31" viewBox="0 0 34 31" fill="none" xmlns="http://www.w3.org/2000/svg">
<g id="Group 34323">
<path id="Vector" d="M33.6912 11.228H23.8115C23.6417 11.228 23.5027 11.3669 23.5027 11.5367V13.3892C23.5027 13.559 23.6417 13.6979 23.8115 13.6979H33.6912C33.861 13.6979 34 13.559 34 13.3892V11.5367C34 11.3669 33.861 11.228 33.6912 11.228ZM28.5198 16.4766H23.8115C23.6417 16.4766 23.5027 16.6155 23.5027 16.7853V18.6378C23.5027 18.8076 23.6417 18.9465 23.8115 18.9465H28.5198C28.6896 18.9465 28.8285 18.8076 28.8285 18.6378V16.7853C28.8285 16.6155 28.6896 16.4766 28.5198 16.4766ZM15.6414 7.77393H13.9703C13.7311 7.77393 13.5381 7.96689 13.5381 8.20617V17.7772C13.5381 17.9161 13.6037 18.0435 13.7156 18.1245L19.4621 22.3157C19.655 22.4546 19.9252 22.416 20.0641 22.2231L21.056 20.8685V20.8646C21.1949 20.6716 21.1524 20.4015 20.9595 20.2625L16.0698 16.7274V8.20617C16.0736 7.96689 15.8768 7.77393 15.6414 7.77393Z" fill="#007AFF"/>
<path id="Vector_2" d="M28.2808 21.3353H26.0501C25.834 21.3353 25.6295 21.4472 25.5137 21.6324C25.0236 22.4081 24.4524 23.126 23.7963 23.782C22.6656 24.9128 21.3495 25.8004 19.8869 26.4179C18.3702 27.0586 16.7609 27.3827 15.1014 27.3827C13.438 27.3827 11.8287 27.0586 10.3159 26.4179C8.85321 25.8004 7.53719 24.9128 6.40643 23.782C5.27566 22.6513 4.38802 21.3353 3.77054 19.8726C3.1299 18.3598 2.80572 16.7504 2.80572 15.0871C2.80572 13.4237 3.1299 11.8183 3.77054 10.3016C4.38802 8.83892 5.27566 7.52291 6.40643 6.39214C7.53719 5.26137 8.85321 4.37374 10.3159 3.75625C11.8287 3.11561 13.4419 2.79143 15.1014 2.79143C16.7647 2.79143 18.374 3.11561 19.8869 3.75625C21.3495 4.37374 22.6656 5.26137 23.7963 6.39214C24.4524 7.04822 25.0236 7.76604 25.5137 8.54176C25.6295 8.727 25.834 8.83892 26.0501 8.83892H28.2808C28.5471 8.83892 28.7169 8.56105 28.5973 8.32564C26.081 3.32016 20.9791 0.0667849 15.2828 0.00117718C6.94286 -0.103023 0.0154635 6.72404 2.63659e-05 15.0562C-0.0154107 23.4038 6.7499 30.1769 15.0975 30.1769C20.8671 30.1769 26.054 26.9119 28.5973 21.8485C28.7169 21.6131 28.5432 21.3353 28.2808 21.3353Z" fill="#007AFF"/>
</g>
</svg>
