<svg width="23" height="19" viewBox="0 0 23 19" fill="none" xmlns="http://www.w3.org/2000/svg">
<g id="003-twitter">
<path id="Path" d="M22.6191 2.37369C21.801 2.73257 20.9293 2.97044 20.0204 3.08594C20.9554 2.52769 21.669 1.65044 22.0045 0.593068C21.1328 1.11282 20.1703 1.47994 19.1445 1.68482C18.3168 0.803443 17.137 0.257568 15.85 0.257568C13.353 0.257568 11.3428 2.28432 11.3428 4.76894C11.3428 5.12644 11.373 5.47019 11.4473 5.79744C7.69764 5.61457 4.37977 3.81744 2.15089 1.07982C1.76177 1.75494 1.53352 2.52769 1.53352 3.35957C1.53352 4.92157 2.33789 6.30619 3.53689 7.10782C2.81227 7.09407 2.10139 6.88369 1.49914 6.55232C1.49914 6.56607 1.49914 6.58394 1.49914 6.60182C1.49914 8.79357 3.06252 10.6141 5.11264 11.0334C4.74552 11.1338 4.34539 11.1819 3.93014 11.1819C3.64139 11.1819 3.34989 11.1654 3.07627 11.1049C3.66064 12.8911 5.31889 14.2042 7.29064 14.2468C5.75614 15.4472 3.80777 16.1704 1.69852 16.1704C1.32864 16.1704 0.973891 16.1539 0.619141 16.1086C2.61702 17.3969 4.98477 18.1326 7.53814 18.1326C15.8376 18.1326 20.3751 11.2576 20.3751 5.29832C20.3751 5.09894 20.3683 4.90644 20.3586 4.71532C21.2538 4.08007 22.0059 3.28669 22.6191 2.37369Z" fill="#007AFF"/>
</g>
</svg>
